<?xml version="1.0" standalone="no"?>
<!DOCTYPE svg PUBLIC "-//W3C//DTD SVG 20010904//EN"
 "http://www.w3.org/TR/2001/REC-SVG-20010904/DTD/svg10.dtd">
<svg version="1.0" xmlns="http://www.w3.org/2000/svg"
 width="512.000000pt" height="512.000000pt" viewBox="0 0 512.000000 512.000000"
 preserveAspectRatio="xMidYMid meet">
<metadata>
Created by potrace 1.11, written by Peter Selinger 2001-2013
</metadata>
<g transform="translate(0.000000,512.000000) scale(0.100000,-0.100000)"
fill="#000000" stroke="none">
<path d="M2518 4695 c-2 -1 -48 -5 -103 -9 -290 -17 -566 -94 -840 -234 -119
-60 -335 -205 -406 -272 -175 -166 -232 -227 -318 -343 -316 -427 -464 -946
-418 -1462 39 -436 212 -854 489 -1181 72 -86 212 -227 263 -266 17 -12 32
-25 35 -29 13 -16 165 -122 241 -167 202 -122 512 -240 697 -268 20 -3 44 -7
52 -9 15 -5 82 -13 165 -21 55 -5 344 -5 375 0 26 4 89 13 152 21 21 3 59 10
85 16 27 6 57 12 67 15 128 26 367 116 506 191 87 47 267 164 316 205 220 184
383 369 511 583 53 89 143 266 143 281 0 3 7 20 14 37 15 32 73 209 81 244 33
154 45 222 52 279 10 88 10 432 0 504 -15 106 -37 225 -52 280 -9 30 -17 62
-19 70 -11 43 -59 176 -67 185 -5 5 -9 15 -9 22 0 21 -79 180 -143 288 -321
537 -892 923 -1496 1011 -25 4 -55 8 -66 11 -11 2 -76 6 -145 9 -69 3 -133 7
-142 8 -9 2 -18 3 -20 1z m-338 -1035 c103 -27 260 -142 290 -211 6 -13 19
-38 29 -54 52 -87 64 -253 26 -373 -115 -363 -573 -467 -843 -191 -48 49 -118
183 -128 245 -34 219 56 422 238 531 105 64 267 86 388 53z m1255 -335 c366
-97 412 -602 70 -765 -277 -132 -592 72 -587 380 5 265 258 453 517 385z
m-1195 -988 c14 -3 45 -8 70 -11 58 -8 100 -15 123 -22 15 -5 11 -10 -20 -26
-44 -23 -171 -118 -193 -145 -98 -118 -129 -172 -154 -270 -13 -51 -16 -133
-16 -498 0 -412 -1 -437 -17 -430 -10 4 -38 13 -63 21 -75 25 -260 120 -352
181 -289 193 -521 480 -647 801 l-20 51 45 40 c52 46 155 108 239 146 165 73
430 142 620 161 33 3 61 7 63 9 5 5 294 -3 322 -8z m1227 -161 c52 -5 106 -14
183 -31 14 -3 37 -7 52 -10 64 -12 245 -78 318 -116 86 -44 120 -70 120 -89 0
-22 -91 -202 -144 -284 -91 -140 -210 -278 -325 -376 -29 -25 -59 -50 -66 -57
-36 -34 -228 -151 -321 -194 -272 -129 -509 -173 -856 -160 l-38 1 0 458 0
457 24 50 c30 65 111 138 214 193 141 75 391 144 571 158 42 3 77 7 78 8 4 3
132 -2 190 -8z"/>
</g>
</svg>
