<?xml version="1.0" encoding="utf-8"?>
<!-- Generator: Adobe Illustrator 18.1.0, SVG Export Plug-In . SVG Version: 6.00 Build 0)  -->
<!DOCTYPE svg PUBLIC "-//W3C//DTD SVG 1.0//EN" "http://www.w3.org/TR/2001/REC-SVG-20010904/DTD/svg10.dtd">
<svg version="1.0" id="Layer_1" xmlns="http://www.w3.org/2000/svg" xmlns:xlink="http://www.w3.org/1999/xlink" x="0px" y="0px"
	 viewBox="0 0 700 700" enable-background="new 0 0 700 700" xml:space="preserve">
<g>
	<g>
		<polygon fill="#231F20" points="115.7,584.3 115.7,414.3 87.5,414.3 87.5,584.3 87.5,612.5 115.7,612.5 285.7,612.5 285.7,584.3 
					"/>
		<polygon fill="#231F20" points="115.7,115.7 285.7,115.7 285.7,87.5 115.7,87.5 87.5,87.5 87.5,115.7 87.5,285.7 115.7,285.7 		
			"/>
		<polygon fill="#231F20" points="584.3,115.7 584.3,285.7 612.5,285.7 612.5,115.7 612.5,87.5 584.3,87.5 414.3,87.5 414.3,115.7 
					"/>
		<polygon fill="#231F20" points="584.3,584.3 414.3,584.3 414.3,612.5 584.3,612.5 612.5,612.5 612.5,584.3 612.5,414.3 
			584.3,414.3 		"/>
		<g>
			<path fill="#231F20" d="M246.1,274c0-3.3-1.2-6-3.6-8.1c-2.4-2-6.5-3.9-12.5-5.7c-10.4-3-18.2-6.5-23.5-10.6
				c-5.3-4.1-7.9-9.7-7.9-16.8s3-13,9.1-17.5c6.1-4.5,13.8-6.8,23.3-6.8c9.6,0,17.3,2.5,23.4,7.6c6,5.1,8.9,11.3,8.7,18.8l-0.1,0.4
				h-16.9c0-4-1.3-7.3-4-9.8c-2.7-2.5-6.5-3.7-11.3-3.7c-4.7,0-8.3,1-10.8,3.1s-3.8,4.7-3.8,7.9c0,2.9,1.4,5.4,4.1,7.3
				c2.7,1.9,7.4,3.9,14.1,6c9.6,2.7,16.9,6.2,21.8,10.6c4.9,4.4,7.4,10.1,7.4,17.3c0,7.4-2.9,13.3-8.8,17.6
				c-5.9,4.3-13.6,6.5-23.3,6.5c-9.5,0-17.7-2.4-24.8-7.3c-7.1-4.9-10.5-11.7-10.3-20.5l0.1-0.4h17c0,5.2,1.6,9,4.7,11.4
				c3.2,2.4,7.6,3.6,13.2,3.6c4.7,0,8.4-1,10.9-2.9C244.9,279.9,246.1,277.3,246.1,274z"/>
			<path fill="#231F20" d="M342.4,267.1l0.1,0.4c0.2,9.4-2.7,16.8-8.6,22.3c-5.9,5.5-14,8.2-24.5,8.2c-10.5,0-19-3.4-25.5-10.1
				s-9.8-15.4-9.8-26v-17.3c0-10.6,3.2-19.2,9.6-26c6.4-6.8,14.7-10.2,24.9-10.2c10.8,0,19.2,2.8,25.2,8.3c6.1,5.5,9,13,8.8,22.6
				l-0.1,0.4h-17c0-5.7-1.4-10.1-4.1-13.2c-2.7-3.1-7-4.6-12.8-4.6c-5.2,0-9.4,2.1-12.4,6.4c-3.1,4.2-4.6,9.6-4.6,16.2v17.4
				c0,6.6,1.6,12.1,4.8,16.3c3.2,4.2,7.6,6.4,13.1,6.4c5.5,0,9.5-1.5,12.1-4.4c2.6-2.9,3.9-7.3,3.9-13.1H342.4z"/>
			<path fill="#231F20" d="M401.6,278h-30.5l-5.9,18.8h-17.6l29.9-87h17.9l29.8,87h-17.6L401.6,278z M375.4,264.3h21.9l-10.8-34.2
				h-0.4L375.4,264.3z"/>
			<path fill="#231F20" d="M503.6,296.7h-17.4l-35.1-59.4l-0.4,0.1v59.4h-17.4v-87h17.4l35.1,59.4l0.4-0.1v-59.3h17.4V296.7z"/>
		</g>
		<g>
			<path fill="#231F20" d="M224.4,329.3l51.6,131.6h0.7l51.6-131.6h28v162h-21.9v-64.1l2.2-65.9l-0.6-0.1l-52.5,130.1h-14.6
				l-52.3-129.8l-0.6,0.1l2.1,65.5v64.1h-21.9v-162H224.4z"/>
			<path fill="#231F20" d="M492.7,416.2h-74.2v57.9h85.6v17.2H396.6v-162h106.3v17.2h-84.4V399h74.2V416.2z"/>
		</g>
	</g>
</g>
</svg>
