<?xml version="1.0" encoding="utf-8"?>
<!-- Generator: Adobe Illustrator 21.1.0, SVG Export Plug-In . SVG Version: 6.00 Build 0)  -->
<svg version="1.1" id="Ebene_1" xmlns="http://www.w3.org/2000/svg" xmlns:xlink="http://www.w3.org/1999/xlink" x="0px" y="0px"
	 viewBox="0 0 500 200" enable-background="new 0 0 500 200" xml:space="preserve">
<g id="XMLID_386_" opacity="5.000000e-02">
	<rect id="XMLID_934_" x="38" y="44" fill="#797D80" width="424" height="155"/>
</g>
<g id="XMLID_25_">
	<path id="XMLID_26_" fill="#FFFFFF" d="M47,91V71c0-0.6,0.4-1,1-1h138c0.6,0,1,0.4,1,1v20c0,0.6-0.4,1-1,1H48
		C47.4,92,47,91.6,47,91z"/>
</g>
<g id="XMLID_385_">
	<g id="XMLID_933_">
		<path fill="#47BDEF" d="M186,71v20H48V71H186 M186,70H48c-0.6,0-1,0.4-1,1v20c0,0.6,0.4,1,1,1h138c0.6,0,1-0.4,1-1V71
			C187,70.4,186.6,70,186,70L186,70z"/>
	</g>
</g>
<g id="XMLID_309_" opacity="0.1">
	<path id="XMLID_882_" fill="#797D80" d="M38,12V5c0-1.7,1.3-3,3-3h418c1.7,0,3,1.3,3,3v7H38z"/>
</g>
<g id="XMLID_287_">
	<g id="XMLID_304_" opacity="0.25">
		<g id="XMLID_305_">
			<g id="XMLID_306_">
				<polygon id="XMLID_880_" fill="#797D80" points="470,199 462,200 462,5 464,5 				"/>
			</g>
		</g>
	</g>
	<g id="XMLID_301_" opacity="0.25">
		<g id="XMLID_302_">
			<g id="XMLID_303_">
				<polygon id="XMLID_879_" fill="#797D80" points="30,199 38,200 38,5 36,5 				"/>
			</g>
		</g>
	</g>
	<g id="XMLID_292_">
		<g id="XMLID_293_">
			<g id="XMLID_299_">
				<g id="XMLID_300_">
					<circle id="XMLID_873_" fill="#797D80" cx="44" cy="7" r="2"/>
				</g>
			</g>
			<g id="XMLID_297_" opacity="0.75">
				<g id="XMLID_298_">
					<circle id="XMLID_872_" fill="#797D80" cx="60" cy="7" r="2"/>
				</g>
			</g>
			<g id="XMLID_294_" opacity="0.5">
				<g id="XMLID_296_">
					<circle id="XMLID_871_" fill="#797D80" cx="52" cy="7" r="2"/>
				</g>
			</g>
		</g>
	</g>
	<g id="XMLID_289_">
		<path id="XMLID_1168_" fill="#797D80" d="M459,0H41c-2.8,0-5,2.2-5,5v195h2V13h424v187h2V5C464,2.2,461.8,0,459,0z M38,12V5
			c0-1.7,1.3-3,3-3h418c1.7,0,3,1.3,3,3v7H38z"/>
	</g>
	<g id="XMLID_288_">
		<rect id="XMLID_870_" y="199" fill="#797D80" width="500" height="1"/>
	</g>
</g>
<g id="XMLID_282_">
	<rect id="XMLID_413_" x="59" y="34" fill="#47BDEF" width="25" height="3"/>
</g>
<g id="XMLID_16_">
	<g id="XMLID_17_">
		<path fill="#47BDEF" d="M51.5,32c1.9,0,3.5,1.6,3.5,3.5S53.4,39,51.5,39S48,37.4,48,35.5S49.6,32,51.5,32 M51.5,31
			C49,31,47,33,47,35.5s2,4.5,4.5,4.5s4.5-2,4.5-4.5S54,31,51.5,31L51.5,31z"/>
	</g>
</g>
<g id="XMLID_13_">
	<g id="XMLID_30_">
		<path fill="#47BDEF" d="M183,91L183,91c0-1.7,1.3-3,3-3l0,0c1.7,0,3,1.3,3,3l0,0c0,1.7-1.3,3-3,3l0,0C184.3,94,183,92.7,183,91z"
			/>
	</g>
</g>
<g id="XMLID_745_" opacity="0.25">
	<g id="XMLID_746_">
		<rect x="124" y="34" fill="#797D80" width="25" height="3"/>
	</g>
</g>
<g id="XMLID_63_" opacity="0.25">
	<g id="XMLID_247_">
		<path fill="#797D80" d="M116.5,32c1.9,0,3.5,1.6,3.5,3.5s-1.6,3.5-3.5,3.5c-1.9,0-3.5-1.6-3.5-3.5S114.6,32,116.5,32 M116.5,31
			L116.5,31c-2.5,0-4.5,2-4.5,4.5s2,4.5,4.5,4.5h0c2.5,0,4.5-2,4.5-4.5S119,31,116.5,31L116.5,31z"/>
	</g>
</g>
<g id="XMLID_750_" opacity="0.25">
	<g id="XMLID_751_">
		<rect x="189" y="34" fill="#797D80" width="25" height="3"/>
	</g>
</g>
<g id="XMLID_747_" opacity="0.25">
	<g id="XMLID_749_">
		<path fill="#797D80" d="M181.5,32c1.9,0,3.5,1.6,3.5,3.5s-1.6,3.5-3.5,3.5s-3.5-1.6-3.5-3.5S179.6,32,181.5,32 M181.5,31
			c-2.5,0-4.5,2-4.5,4.5s2,4.5,4.5,4.5s4.5-2,4.5-4.5S184,31,181.5,31L181.5,31z"/>
	</g>
</g>
<g id="XMLID_6_">
	<rect id="XMLID_11_" x="47" y="53" fill="#797D80" width="57" height="5"/>
</g>
<g id="XMLID_42_" opacity="0.25">
	<rect id="XMLID_137_" x="47" y="62" fill="#797D80" width="126" height="1"/>
</g>
<g id="XMLID_138_" opacity="0.25">
	<rect id="XMLID_139_" x="207" y="62" fill="#797D80" width="126" height="1"/>
</g>
<g id="XMLID_140_" opacity="0.25">
	<rect id="XMLID_141_" x="177" y="61" fill="#797D80" width="26" height="3"/>
</g>
<g id="XMLID_39_">
	<rect id="XMLID_41_" x="66" y="76" fill="#47BDEF" width="24" height="4"/>
</g>
<g id="XMLID_19_">
	<g id="XMLID_38_">
		<path fill="#47BDEF" d="M56,77v2h-2v-2H56 M58,75h-6v6h6V75L58,75z"/>
	</g>
</g>
<g id="XMLID_24_">
	<path id="XMLID_27_" fill="#FFFFFF" d="M47,117V97c0-0.6,0.4-1,1-1h138c0.6,0,1,0.4,1,1v20c0,0.6-0.4,1-1,1H48
		C47.4,118,47,117.6,47,117z"/>
</g>
<g id="XMLID_22_" opacity="0.25">
	<g id="XMLID_23_">
		<path fill="#797D80" d="M186,97v20H48V97H186 M186,96H48c-0.6,0-1,0.4-1,1v20c0,0.6,0.4,1,1,1h138c0.6,0,1-0.4,1-1V97
			C187,96.4,186.6,96,186,96L186,96z"/>
	</g>
</g>
<g id="XMLID_20_">
	<rect id="XMLID_21_" x="66" y="102" fill="#797D80" width="24" height="4"/>
</g>
<g id="XMLID_15_">
	<rect id="XMLID_18_" x="66" y="109" opacity="0.75" fill="#797D80" width="62" height="3"/>
</g>
<g id="XMLID_12_">
	<g id="XMLID_14_">
		<path fill="#797D80" d="M56,103v2h-2v-2H56 M58,101h-6v6h6V101L58,101z"/>
	</g>
</g>
<g id="XMLID_44_">
	<path id="XMLID_45_" fill="#FFFFFF" d="M47,143v-20c0-0.6,0.4-1,1-1h138c0.6,0,1,0.4,1,1v20c0,0.6-0.4,1-1,1H48
		C47.4,144,47,143.6,47,143z"/>
</g>
<g id="XMLID_36_" opacity="0.25">
	<g id="XMLID_37_">
		<path fill="#797D80" d="M186,123v20H48v-20H186 M186,122H48c-0.6,0-1,0.4-1,1v20c0,0.6,0.4,1,1,1h138c0.6,0,1-0.4,1-1v-20
			C187,122.4,186.6,122,186,122L186,122z"/>
	</g>
</g>
<g id="XMLID_34_">
	<rect id="XMLID_35_" x="66" y="128" fill="#797D80" width="24" height="4"/>
</g>
<g id="XMLID_32_">
	<rect id="XMLID_33_" x="66" y="135" opacity="0.75" fill="#797D80" width="62" height="3"/>
</g>
<g id="XMLID_28_">
	<g id="XMLID_31_">
		<path fill="#797D80" d="M56,129v2h-2v-2H56 M58,127h-6v6h6V127L58,127z"/>
	</g>
</g>
<g id="XMLID_56_">
	<path id="XMLID_57_" fill="#FFFFFF" d="M47,169v-20c0-0.6,0.4-1,1-1h138c0.6,0,1,0.4,1,1v20c0,0.6-0.4,1-1,1H48
		C47.4,170,47,169.6,47,169z"/>
</g>
<g id="XMLID_54_" opacity="0.25">
	<g id="XMLID_55_">
		<path fill="#797D80" d="M186,149v20H48v-20H186 M186,148H48c-0.6,0-1,0.4-1,1v20c0,0.6,0.4,1,1,1h138c0.6,0,1-0.4,1-1v-20
			C187,148.4,186.6,148,186,148L186,148z"/>
	</g>
</g>
<g id="XMLID_52_">
	<rect id="XMLID_53_" x="66" y="154" fill="#797D80" width="24" height="4"/>
</g>
<g id="XMLID_50_">
	<rect id="XMLID_51_" x="66" y="161" opacity="0.75" fill="#797D80" width="62" height="3"/>
</g>
<g id="XMLID_46_">
	<g id="XMLID_49_">
		<path fill="#797D80" d="M56,155v2h-2v-2H56 M58,153h-6v6h6V153L58,153z"/>
	</g>
</g>
<g id="XMLID_69_">
	<path id="XMLID_70_" fill="#FFFFFF" d="M47,195v-20c0-0.6,0.4-1,1-1h138c0.6,0,1,0.4,1,1v20c0,0.6-0.4,1-1,1H48
		C47.4,196,47,195.6,47,195z"/>
</g>
<g id="XMLID_67_" opacity="0.25">
	<g id="XMLID_68_">
		<path fill="#797D80" d="M186,175v20H48v-20H186 M186,174H48c-0.6,0-1,0.4-1,1v20c0,0.6,0.4,1,1,1h138c0.6,0,1-0.4,1-1v-20
			C187,174.4,186.6,174,186,174L186,174z"/>
	</g>
</g>
<g id="XMLID_65_">
	<rect id="XMLID_66_" x="66" y="180" fill="#797D80" width="24" height="4"/>
</g>
<g id="XMLID_62_">
	<rect id="XMLID_64_" x="66" y="187" opacity="0.75" fill="#797D80" width="62" height="3"/>
</g>
<g id="XMLID_58_">
	<g id="XMLID_61_">
		<path fill="#797D80" d="M56,181v2h-2v-2H56 M58,179h-6v6h6V179L58,179z"/>
	</g>
</g>
<g id="XMLID_121_">
	<path id="XMLID_122_" fill="#FFFFFF" d="M193,91V71c0-0.6,0.4-1,1-1h138c0.6,0,1,0.4,1,1v20c0,0.6-0.4,1-1,1H194
		C193.4,92,193,91.6,193,91z"/>
</g>
<g id="XMLID_142_">
	<path id="XMLID_143_" fill="#FFFFFF" d="M345,199V71c0-8.3,6.7-15,15-15h76c8.3,0,15,6.7,15,15v128H345z"/>
</g>
<g id="XMLID_144_">
	<g id="XMLID_145_" opacity="0.25">
		<path fill="#797D80" d="M436,57c7.7,0,14,6.3,14,14v128H346V71c0-7.7,6.3-14,14-14H436 M436,56h-76c-8.3,0-15,6.7-15,15v129h106
			V71C451,62.7,444.3,56,436,56L436,56z"/>
	</g>
</g>
<g id="XMLID_119_" opacity="0.25">
	<g id="XMLID_120_">
		<path fill="#797D80" d="M332,71v20H194V71H332 M332,70H194c-0.6,0-1,0.4-1,1v20c0,0.6,0.4,1,1,1h138c0.6,0,1-0.4,1-1V71
			C333,70.4,332.6,70,332,70L332,70z"/>
	</g>
</g>
<g id="XMLID_146_">
	<path id="XMLID_147_" fill="none" stroke="#47BDEF" stroke-miterlimit="10" d="M351.5,199V81.5c0-0.6,0.4-1,1-1h91c0.6,0,1,0.4,1,1
		V199"/>
</g>
<g id="XMLID_149_" opacity="0.5">
	<g id="XMLID_151_">
		<rect x="352" y="81" fill="#47BDEF" width="92" height="20"/>
	</g>
</g>
<g id="XMLID_152_" opacity="0.25">
	<g id="XMLID_154_">
		<path fill="#47BDEF" d="M438,110c1.1,0,2,0.9,2,2v80c0,1.1-0.9,2-2,2h-80c-1.1,0-2-0.9-2-2v-80c0-1.1,0.9-2,2-2H438 M438,109h-80
			c-1.7,0-3,1.3-3,3v80c0,1.7,1.3,3,3,3h80c1.7,0,3-1.3,3-3v-80C441,110.3,439.7,109,438,109L438,109z"/>
	</g>
</g>
<g id="XMLID_117_">
	<rect id="XMLID_118_" x="212" y="76" fill="#797D80" width="24" height="4"/>
</g>
<g id="XMLID_115_">
	<rect id="XMLID_116_" x="212" y="83" opacity="0.75" fill="#797D80" width="62" height="3"/>
</g>
<g id="XMLID_113_">
	<g id="XMLID_114_">
		<path fill="#797D80" d="M202,77v2h-2v-2H202 M204,75h-6v6h6V75L204,75z"/>
	</g>
</g>
<g id="XMLID_111_">
	<path id="XMLID_112_" fill="#FFFFFF" d="M193,117V97c0-0.6,0.4-1,1-1h138c0.6,0,1,0.4,1,1v20c0,0.6-0.4,1-1,1H194
		C193.4,118,193,117.6,193,117z"/>
</g>
<g id="XMLID_109_" opacity="0.25">
	<g id="XMLID_110_">
		<path fill="#797D80" d="M332,97v20H194V97H332 M332,96H194c-0.6,0-1,0.4-1,1v20c0,0.6,0.4,1,1,1h138c0.6,0,1-0.4,1-1V97
			C333,96.4,332.6,96,332,96L332,96z"/>
	</g>
</g>
<g id="XMLID_107_">
	<rect id="XMLID_108_" x="212" y="102" fill="#797D80" width="24" height="4"/>
</g>
<g id="XMLID_105_">
	<rect id="XMLID_106_" x="212" y="109" opacity="0.75" fill="#797D80" width="62" height="3"/>
</g>
<g id="XMLID_103_">
	<g id="XMLID_104_">
		<path fill="#797D80" d="M202,103v2h-2v-2H202 M204,101h-6v6h6V101L204,101z"/>
	</g>
</g>
<g id="XMLID_101_">
	<path id="XMLID_102_" fill="#FFFFFF" d="M193,143v-20c0-0.6,0.4-1,1-1h138c0.6,0,1,0.4,1,1v20c0,0.6-0.4,1-1,1H194
		C193.4,144,193,143.6,193,143z"/>
</g>
<g id="XMLID_99_" opacity="0.25">
	<g id="XMLID_100_">
		<path fill="#797D80" d="M332,123v20H194v-20H332 M332,122H194c-0.6,0-1,0.4-1,1v20c0,0.6,0.4,1,1,1h138c0.6,0,1-0.4,1-1v-20
			C333,122.4,332.6,122,332,122L332,122z"/>
	</g>
</g>
<g id="XMLID_97_">
	<rect id="XMLID_98_" x="212" y="128" fill="#797D80" width="24" height="4"/>
</g>
<g id="XMLID_95_">
	<rect id="XMLID_96_" x="212" y="135" opacity="0.75" fill="#797D80" width="62" height="3"/>
</g>
<g id="XMLID_93_">
	<g id="XMLID_94_">
		<path fill="#797D80" d="M202,129v2h-2v-2H202 M204,127h-6v6h6V127L204,127z"/>
	</g>
</g>
<g id="XMLID_91_">
	<path id="XMLID_92_" fill="#FFFFFF" d="M193,169v-20c0-0.6,0.4-1,1-1h138c0.6,0,1,0.4,1,1v20c0,0.6-0.4,1-1,1H194
		C193.4,170,193,169.6,193,169z"/>
</g>
<g id="XMLID_89_" opacity="0.25">
	<g id="XMLID_90_">
		<path fill="#797D80" d="M332,149v20H194v-20H332 M332,148H194c-0.6,0-1,0.4-1,1v20c0,0.6,0.4,1,1,1h138c0.6,0,1-0.4,1-1v-20
			C333,148.4,332.6,148,332,148L332,148z"/>
	</g>
</g>
<g id="XMLID_87_">
	<rect id="XMLID_88_" x="212" y="154" fill="#797D80" width="24" height="4"/>
</g>
<g id="XMLID_85_">
	<rect id="XMLID_86_" x="212" y="161" opacity="0.75" fill="#797D80" width="62" height="3"/>
</g>
<g id="XMLID_83_">
	<g id="XMLID_84_">
		<path fill="#797D80" d="M202,155v2h-2v-2H202 M204,153h-6v6h6V153L204,153z"/>
	</g>
</g>
<g id="XMLID_81_">
	<path id="XMLID_82_" fill="#FFFFFF" d="M193,195v-20c0-0.6,0.4-1,1-1h138c0.6,0,1,0.4,1,1v20c0,0.6-0.4,1-1,1H194
		C193.4,196,193,195.6,193,195z"/>
</g>
<g id="XMLID_79_" opacity="0.25">
	<g id="XMLID_80_">
		<path fill="#797D80" d="M332,175v20H194v-20H332 M332,174H194c-0.6,0-1,0.4-1,1v20c0,0.6,0.4,1,1,1h138c0.6,0,1-0.4,1-1v-20
			C333,174.4,332.6,174,332,174L332,174z"/>
	</g>
</g>
<g id="XMLID_77_">
	<rect id="XMLID_78_" x="212" y="180" fill="#797D80" width="24" height="4"/>
</g>
<g id="XMLID_75_">
	<rect id="XMLID_76_" x="212" y="187" opacity="0.75" fill="#797D80" width="62" height="3"/>
</g>
<g id="XMLID_71_">
	<g id="XMLID_74_">
		<path fill="#797D80" d="M202,181v2h-2v-2H202 M204,179h-6v6h6V179L204,179z"/>
	</g>
</g>
<g id="XMLID_40_" opacity="0.75">
	<rect id="XMLID_43_" x="66" y="83" opacity="0.75" fill="#47BDEF" width="62" height="3"/>
</g>
<g id="XMLID_155_" opacity="0.25">
	<g id="XMLID_157_">
		<path fill="#47BDEF" d="M356,157v-45c0-1.1,0.9-2,2-2h80c1.1,0,2,0.9,2,2v45H356z"/>
	</g>
</g>
<g id="XMLID_156_" opacity="0.5">
	<g id="XMLID_160_">
		<rect x="360" y="162" fill="#47BDEF" width="64" height="5"/>
	</g>
</g>
<g id="XMLID_173_" opacity="0.25">
	<g id="XMLID_175_">
		<rect x="458" y="26" fill="#797D80" width="4" height="174"/>
	</g>
</g>
<g id="XMLID_170_" opacity="0.5">
	<g id="XMLID_172_">
		<rect x="459" y="28" fill="#797D80" width="2" height="35"/>
	</g>
</g>
<g id="XMLID_161_" opacity="0.5">
	<g id="XMLID_163_">
		<rect x="360" y="170" fill="#47BDEF" width="76" height="3"/>
	</g>
</g>
<g id="XMLID_164_" opacity="0.5">
	<g id="XMLID_166_">
		<rect x="360" y="176" fill="#47BDEF" width="76" height="3"/>
	</g>
</g>
<g id="XMLID_167_" opacity="0.5">
	<g id="XMLID_169_">
		<rect x="360" y="182" fill="#47BDEF" width="64" height="3"/>
	</g>
</g>
<g id="XMLID_188_">
	<rect id="XMLID_189_" x="38" y="13" fill="#797D80" width="424" height="13"/>
</g>
<g id="XMLID_186_">
	<polygon id="XMLID_187_" fill="#FFFFFF" points="448,19 447,18 451,18 449,20 	"/>
</g>
<g id="XMLID_184_">
	<rect id="XMLID_185_" x="412" y="15" fill="#FFFFFF" width="1" height="8"/>
</g>
<g id="XMLID_182_">
	<rect id="XMLID_183_" x="60" y="14" fill="#FFFFFF" width="1" height="9"/>
</g>
<g id="XMLID_174_">
	<g id="XMLID_180_">
		<rect id="XMLID_181_" x="418" y="17" fill="#FFFFFF" width="24" height="4"/>
	</g>
	<g id="XMLID_178_" opacity="0.75">
		<g id="XMLID_179_">
			<path fill="#FFFFFF" d="M404,17c1.1,0,2,0.9,2,2s-0.9,2-2,2s-2-0.9-2-2S402.9,17,404,17 M404,16c-1.7,0-3,1.3-3,3
				c0,1.7,1.3,3,3,3s3-1.3,3-3C407,17.3,405.7,16,404,16L404,16z"/>
		</g>
	</g>
</g>
<g id="XMLID_7_" opacity="0.5">
	<rect id="XMLID_8_" x="94" y="17" fill="#FFFFFF" width="20" height="4"/>
</g>
<g id="XMLID_4_">
	<g id="XMLID_5_">
		<path fill="#FFFFFF" d="M53,16c0.6,0,1,0.4,1,1v5h-5c-0.6,0-1-0.4-1-1v-4c0-0.6,0.4-1,1-1H53 M53,15h-4c-1.1,0-2,0.9-2,2v4
			c0,1.1,0.9,2,2,2h6v-6C55,15.9,54.1,15,53,15L53,15z"/>
	</g>
</g>
<g id="XMLID_2_">
	<g id="XMLID_3_">
		<path fill="#FFFFFF" d="M50,21h3v-3c0-0.6-0.4-1-1-1h-2c-0.6,0-1,0.4-1,1v2C49,20.6,49.4,21,50,21z"/>
	</g>
</g>
<g id="XMLID_10_" opacity="0.5">
	<rect id="XMLID_1_" x="66" y="17" fill="#FFFFFF" width="20" height="4"/>
</g>
<g>
	<polygon fill="#47BDEF" points="464,110 354,0 434,0 464,30 	"/>
</g>
<g>
	<path fill="#FFFFFF" d="M417.2,23.5c6.4-6.4,12.2-7.2,16.1-3.3s3,9.7-3.3,16.1c-6.4,6.4-12.3,7.4-16.2,3.5S410.9,29.9,417.2,23.5z
		 M426.7,33c5.3-5.3,5.7-8.3,3.9-10.1c-1.8-1.8-4.8-1.4-10.1,3.9c-5.3,5.3-5.9,8.5-4.1,10.3C418.3,38.9,421.4,38.4,426.7,33z"/>
	<path fill="#FFFFFF" d="M419.6,51.9c2.7,1.2,5.1,0.9,6.6-0.6c-0.1-0.1-0.2-0.2-0.3-0.3c-1.2-1.2-1.4-3-0.1-4.3
		c1.3-1.3,3.1-1.1,4.4,0.2c1.6,1.6,1.2,3.8-0.9,6c-2.9,2.9-6.8,3.5-10.8,1.5L419.6,51.9z"/>
	<path fill="#FFFFFF" d="M439.8,47.7l7,7l-2.5,2.5l-7-7L439.8,47.7z"/>
</g>
</svg>
