<?xml version="1.0" encoding="utf-8"?>
<!-- Generator: Adobe Illustrator 21.1.0, SVG Export Plug-In . SVG Version: 6.00 Build 0)  -->
<svg version="1.1" id="Ebene_1" xmlns="http://www.w3.org/2000/svg" xmlns:xlink="http://www.w3.org/1999/xlink" x="0px" y="0px"
	 viewBox="0 0 486 202" enable-background="new 0 0 486 202" xml:space="preserve">
<g id="XMLID_845_">
	<path id="XMLID_1545_" opacity="0.1" fill="#797D80" d="M161,13V6c0-1.7,1.3-3,3-3h158c1.7,0,3,1.3,3,3v7H161z"/>
	<g id="XMLID_1209_">
		<g id="XMLID_1224_">
			<g id="XMLID_1225_">
				<g id="XMLID_1529_">
					<circle id="XMLID_1531_" fill="#797D80" cx="167" cy="8" r="2"/>
				</g>
				<g id="XMLID_1243_" opacity="0.75">
					<circle id="XMLID_1245_" fill="#797D80" cx="183" cy="8" r="2"/>
				</g>
				<g id="XMLID_1230_" opacity="0.5">
					<circle id="XMLID_1240_" fill="#797D80" cx="175" cy="8" r="2"/>
				</g>
			</g>
		</g>
		<rect id="XMLID_1223_" x="103" y="200" fill="#797D80" width="280" height="1"/>
	</g>
	<g id="XMLID_934_">
		<g id="XMLID_935_">
			<rect id="XMLID_1023_" x="18" y="72" fill="#797D80" width="6" height="6"/>
			<rect id="XMLID_1021_" x="18" y="136" fill="#797D80" width="6" height="6"/>
			<polygon id="XMLID_1020_" fill="#797D80" points="55,73 55,69 55,65 47,65 47,69 51,69 51,81 55,81 55,77 63,77 63,73 			"/>
			<polygon id="XMLID_1019_" fill="#797D80" points="71,105 71,113 75,113 75,105 83,105 83,101 75,101 71,101 67,101 67,105 			"/>
			<polygon id="XMLID_1018_" fill="#797D80" points="79,109 79,113 87,113 87,109 91,109 91,117 95,117 95,105 83,105 83,109 			"/>
			<polygon id="XMLID_1017_" fill="#797D80" points="87,89 75,89 75,93 71,93 71,97 79,97 79,93 83,93 83,97 87,97 87,101 95,101 
				95,97 91,97 91,93 87,93 			"/>
			<rect id="XMLID_1016_" x="67" y="85" fill="#797D80" width="4" height="8"/>
			<rect id="XMLID_1015_" x="11" y="89" fill="#797D80" width="8" height="4"/>
			<rect id="XMLID_1013_" x="19" y="93" fill="#797D80" width="4" height="4"/>
			<rect id="XMLID_1012_" x="91" y="145" fill="#797D80" width="4" height="4"/>
			<rect id="XMLID_1011_" x="43" y="145" fill="#797D80" width="12" height="4"/>
			<rect id="XMLID_1001_" x="35" y="145" fill="#797D80" width="4" height="4"/>
			<rect id="XMLID_1000_" x="35" y="125" fill="#797D80" width="4" height="8"/>
			<polygon id="XMLID_998_" fill="#797D80" points="39,137 35,137 35,141 39,141 39,145 43,145 43,133 39,133 			"/>
			<rect id="XMLID_997_" x="91" y="89" fill="#797D80" width="4" height="4"/>
			<rect id="XMLID_995_" x="79" y="125" fill="#797D80" width="4" height="4"/>
			<path id="XMLID_991_" fill="#797D80" d="M71,113h-4v4h-4v4h4h4v4h-4v4h-4v4h-4v4h-8v-4h4v-4h4v-4h4v-4h-8v4h-4v4h-8v4h4v8h12v4h4
				v4h12v-4h4v-4h-8v4h-4v-4h-4v-4h4v-4h4v4h16v4h-4v4h8v-4h4v-4h-4v-12h4v-4h-4v-4H71V113z M75,121h12v12H75V121z"/>
			<rect id="XMLID_989_" x="31" y="109" fill="#797D80" width="4" height="8"/>
			<rect id="XMLID_987_" x="35" y="105" fill="#797D80" width="4" height="4"/>
			<rect id="XMLID_985_" x="39" y="109" fill="#797D80" width="4" height="4"/>
			<polygon id="XMLID_983_" fill="#797D80" points="39,97 43,97 43,93 43,89 47,89 47,93 51,93 51,85 43,85 43,77 47,77 47,73 
				35,73 35,77 39,77 39,81 35,81 35,85 39,85 39,89 31,89 31,93 39,93 			"/>
			<rect id="XMLID_981_" x="51" y="93" fill="#797D80" width="4" height="4"/>
			<polygon id="XMLID_979_" fill="#797D80" points="59,97 63,97 63,101 67,101 67,97 67,93 59,93 			"/>
			<polygon id="XMLID_977_" fill="#797D80" points="55,101 51,101 51,105 55,105 59,105 59,97 55,97 			"/>
			<rect id="XMLID_975_" x="35" y="117" fill="#797D80" width="4" height="4"/>
			<polygon id="XMLID_973_" fill="#797D80" points="59,113 63,113 63,109 67,109 67,105 59,105 59,109 			"/>
			<polygon id="XMLID_971_" fill="#797D80" points="43,105 43,109 47,109 51,109 51,105 47,105 47,101 51,101 51,97 47,97 43,97 
				43,101 39,101 39,105 			"/>
			<polygon id="XMLID_969_" fill="#797D80" points="59,117 59,113 55,113 55,109 51,109 51,113 47,113 43,113 43,125 47,125 47,117 
				51,117 51,121 55,121 55,117 			"/>
			<polygon id="XMLID_967_" fill="#797D80" points="27,121 27,117 23,117 23,121 23,125 35,125 35,121 			"/>
			<polygon id="XMLID_965_" fill="#797D80" points="19,121 15,121 15,113 11,113 11,125 19,125 			"/>
			<polygon id="XMLID_963_" fill="#797D80" points="15,101 11,101 11,109 15,109 15,105 19,105 19,97 15,97 			"/>
			<polygon id="XMLID_961_" fill="#797D80" points="27,113 27,101 31,101 31,105 35,105 35,101 39,101 39,97 35,97 31,97 31,93 
				27,93 27,97 23,97 23,109 19,109 19,117 23,117 23,113 			"/>
			<polygon id="XMLID_960_" fill="#797D80" points="67,73 71,73 71,65 59,65 59,69 67,69 			"/>
			<polygon id="XMLID_959_" fill="#797D80" points="59,89 63,89 63,85 67,85 67,81 71,81 71,77 63,77 63,81 59,81 59,85 55,85 
				55,93 59,93 			"/>
			<rect id="XMLID_957_" x="35" y="65" fill="#797D80" width="8" height="4"/>
			<path id="XMLID_951_" fill="#797D80" d="M31,65H11v20h20V65z M27,81H15V69h12V81z"/>
			<path id="XMLID_945_" fill="#797D80" d="M11,149h20v-20H11V149z M15,133h12v12H15V133z"/>
			<path id="XMLID_939_" fill="#797D80" d="M75,65v20h20V65H75z M91,81H79V69h12V81z"/>
			<rect id="XMLID_937_" x="82" y="72" fill="#797D80" width="6" height="6"/>
		</g>
	</g>
	<path id="XMLID_856_" fill="#47BDEF" d="M382,99c-4.1,0-7.4,3.1-7.9,7h-40.1c-0.5-3.9-3.9-7-7.9-7c-4.4,0-8,3.6-8,8s3.6,8,8,8
		c4.1,0,7.4-3.1,7.9-7h40.1c0.5,3.9,3.9,7,7.9,7c4.4,0,8-3.6,8-8S386.4,99,382,99z M326,113c-3.3,0-6-2.7-6-6s2.7-6,6-6s6,2.7,6,6
		S329.3,113,326,113z M382,113c-3.3,0-6-2.7-6-6s2.7-6,6-6s6,2.7,6,6S385.3,113,382,113z"/>
	<path id="XMLID_853_" fill="#47BDEF" d="M160,99c-4.1,0-7.4,3.1-7.9,7h-40.1c-0.5-3.9-3.9-7-7.9-7c-4.4,0-8,3.6-8,8s3.6,8,8,8
		c4.1,0,7.4-3.1,7.9-7h40.1c0.5,3.9,3.9,7,7.9,7c4.4,0,8-3.6,8-8S164.4,99,160,99z M104,113c-3.3,0-6-2.7-6-6s2.7-6,6-6s6,2.7,6,6
		S107.3,113,104,113z M160,113c-3.3,0-6-2.7-6-6s2.7-6,6-6s6,2.7,6,6S163.3,113,160,113z"/>
</g>
<g>
	<g>
		<path fill="#797D80" d="M304,115h-52c-0.6,0-1-0.4-1-1v-14c0-0.6,0.4-1,1-1h52c0.6,0,1,0.4,1,1v14C305,114.6,304.6,115,304,115z
			 M253,113h50v-12h-50V113z"/>
	</g>
</g>
<g opacity="0.75">
	<g>
		<rect x="257" y="105" fill="#47BDEF" width="42" height="4"/>
	</g>
</g>
<g opacity="0.75">
	<g>
		<rect x="213" y="106" fill="#797D80" width="28" height="4"/>
	</g>
</g>
<g opacity="0.75">
	<g>
		<rect x="213" y="137" fill="#797D80" width="28" height="4"/>
	</g>
</g>
<g>
	<g>
		<path fill="#797D80" d="M304,147h-52c-0.6,0-1-0.4-1-1v-14c0-0.6,0.4-1,1-1h52c0.6,0,1,0.4,1,1v14C305,146.6,304.6,147,304,147z
			 M253,145h50v-12h-50V145z"/>
	</g>
</g>
<g>
	<g>
		<path fill="#797D80" d="M203,83h-16V67h16V83z M190,80h10V70h-10V80z"/>
	</g>
</g>
<g>
	<g>
		<path fill="#797D80" d="M247,83h-8c-2.2,0-4-1.8-4-4v-8c0-2.2,1.8-4,4-4h12v12C251,81.2,249.2,83,247,83z M239,80h8
			c0.6,0,1-0.4,1-1v-9h-9c-0.6,0-1,0.4-1,1v8C238,79.6,238.4,80,239,80z"/>
	</g>
</g>
<g>
	<g>
		<path fill="#47BDEF" d="M303,63v24h-24V63H303 M303,61h-24c-1.1,0-2,0.9-2,2v24c0,1.1,0.9,2,2,2h24c1.1,0,2-0.9,2-2V63
			C305,61.9,304.1,61,303,61L303,61z"/>
	</g>
</g>
<g>
	<g>
		<path fill="#797D80" d="M295,83h-8c-2.2,0-4-1.8-4-4v-8c0-2.2,1.8-4,4-4h8c2.2,0,4,1.8,4,4v8C299,81.2,297.2,83,295,83z M287,80h8
			c0.6,0,1-0.4,1-1v-8c0-0.6-0.4-1-1-1h-8c-0.6,0-1,0.4-1,1v8C286,79.6,286.4,80,287,80z"/>
	</g>
</g>
<g>
	<rect x="193" y="73" fill="#797D80" width="4" height="4"/>
</g>
<g>
	<path fill="#797D80" d="M244,77h-2c-0.6,0-1-0.4-1-1v-2c0-0.6,0.4-1,1-1h2c0.6,0,1,0.4,1,1v2C245,76.6,244.6,77,244,77z"/>
</g>
<g>
	<path fill="#797D80" d="M292,77h-2c-0.6,0-1-0.4-1-1v-2c0-0.6,0.4-1,1-1h2c0.6,0,1,0.4,1,1v2C293,76.6,292.6,77,292,77z"/>
</g>
<g>
	<path fill="#797D80" d="M193.7,101c-2,0-3.8,0.5-5.3,1.2c-0.8,0.4-1.4,1.3-1.4,2.2v0c0,1,0.6,1.9,1.5,2.3l1.7,0.8
		c0.5,0.2,0.8,0.7,0.8,1.3v0.3c0,0.8-0.7,1.4-1.5,1.4c-1,0-1.9,0.8-1.9,1.8v0c0,0.7,0.4,1.3,1,1.6c1.4,0.7,3.2,1.1,5,1.1
		c5.2,0,9.3-3.1,9.3-7C203,104.1,198.8,101,193.7,101z M191,113c-0.6,0-1-0.4-1-1c0-0.6,0.4-1,1-1s1,0.4,1,1
		C192,112.6,191.6,113,191,113z M190.5,106c-0.8,0-1.5-0.7-1.5-1.5s0.7-1.5,1.5-1.5s1.5,0.7,1.5,1.5S191.3,106,190.5,106z
		 M193,103.5c0-0.8,0.7-1.5,1.5-1.5s1.5,0.7,1.5,1.5s-0.7,1.5-1.5,1.5S193,104.3,193,103.5z M195.5,113c-0.8,0-1.5-0.7-1.5-1.5
		s0.7-1.5,1.5-1.5s1.5,0.7,1.5,1.5S196.3,113,195.5,113z M197,105.5c0-0.8,0.7-1.5,1.5-1.5s1.5,0.7,1.5,1.5s-0.7,1.5-1.5,1.5
		S197,106.3,197,105.5z M199.5,111c-0.8,0-1.5-0.7-1.5-1.5s0.7-1.5,1.5-1.5s1.5,0.7,1.5,1.5S200.3,111,199.5,111z"/>
</g>
<g opacity="0.75">
	<g>
		<rect x="257" y="137" fill="#47BDEF" width="42" height="4"/>
	</g>
</g>
<g>
	<g>
		<path fill="#797D80" d="M187,163v16h16v-16H187z M197,169l-3.8,3.8L191,171l-2,2v-8h12v8L197,169z"/>
	</g>
	<g>
		<circle fill="#797D80" cx="192.5" cy="168.5" r="1.5"/>
	</g>
</g>
<g>
	<g>
		<path fill="#797D80" d="M304,179h-90c-0.6,0-1-0.4-1-1v-14c0-0.6,0.4-1,1-1h90c0.6,0,1,0.4,1,1v14C305,178.6,304.6,179,304,179z
			 M215,177h88v-12h-88V177z"/>
	</g>
</g>
<g opacity="0.75">
	<g>
		<rect x="229" y="169" fill="#797D80" width="48" height="4"/>
	</g>
</g>
<g opacity="0.5">
	<g>
		<rect x="219" y="168" fill="#797D80" width="6" height="6"/>
	</g>
</g>
<g>
	<rect x="259" y="34" fill="#47BDEF" width="56" height="2"/>
</g>
<g>
	<rect x="171" y="34" fill="#47BDEF" width="56" height="2"/>
</g>
<path fill="#47BDEF" d="M253,27l-2-2h-1l-3,3l-2-2l-2,2l1.5,1.5L243,31l-5-5h-2l-2,2v2l5,5l-4,4v2l-2,2l2,2l2-2h2l4-4l5,5l4,1l1-1
	l-1-4l-5-5l1.5-1.5L250,35l2-2l-2-2l3-3V27z M235.8,29l1.2-1.2l4.6,4.6l-1.2,1.2L235.8,29z M250.2,41l-1.2,1.2l-4.6-4.6l1.2-1.2
	L250.2,41z M238.2,41H237v-1.2l8.9-8.9l1.2,1.2L238.2,41z"/>
<g>
	<g>
		<g>
			<path fill="#47BDEF" d="M403,78h-4c-0.6,0-1-0.4-1-1v-4c0-0.6,0.4-1,1-1h4c0.6,0,1,0.4,1,1v4C404,77.6,403.6,78,403,78z"/>
		</g>
		<g>
			<path fill="#47BDEF" d="M403,142h-4c-0.6,0-1-0.4-1-1v-4c0-0.6,0.4-1,1-1h4c0.6,0,1,0.4,1,1v4C404,141.6,403.6,142,403,142z"/>
		</g>
		<g>
			<polygon fill="#47BDEF" points="435,73 435,69 435,65 427,65 427,69 431,69 431,81 435,81 435,77 443,77 443,73 			"/>
			<polygon fill="#47BDEF" points="455,105 463,105 463,101 455,101 451,101 447,101 447,105 451,105 451,113 455,113 			"/>
			<polygon fill="#47BDEF" points="463,109 459,109 459,113 467,113 467,109 471,109 471,117 475,117 475,105 463,105 			"/>
			<polygon fill="#47BDEF" points="467,89 455,89 455,93 451,93 451,97 459,97 459,93 463,93 463,97 467,97 467,101 475,101 475,97 
				471,97 471,93 467,93 			"/>
			<rect x="447" y="85" fill="#47BDEF" width="4" height="8"/>
			<polygon fill="#47BDEF" points="423,89 427,89 427,93 431,93 431,85 423,85 423,77 427,77 427,73 415,73 415,77 419,77 419,81 
				415,81 415,85 419,85 419,89 411,89 411,93 423,93 			"/>
			<rect x="391" y="89" fill="#47BDEF" width="8" height="4"/>
			<rect x="399" y="93" fill="#47BDEF" width="4" height="4"/>
			<rect x="471" y="145" fill="#47BDEF" width="4" height="4"/>
			<rect x="423" y="145" fill="#47BDEF" width="12" height="4"/>
			<rect x="415" y="145" fill="#47BDEF" width="4" height="4"/>
			<rect x="415" y="125" fill="#47BDEF" width="4" height="8"/>
			<polygon fill="#47BDEF" points="419,137 415,137 415,141 419,141 419,145 423,145 423,133 419,133 			"/>
			<rect x="471" y="89" fill="#47BDEF" width="4" height="4"/>
			<rect x="459" y="125" fill="#47BDEF" width="4" height="4"/>
			<path fill="#47BDEF" d="M451,117v-4h-4v8h4v4h-4v4h-4v4h-4v4h-8v-4h4v-4h4v-4h4v-4h-8v4h-4v4h-8v4h4v8h12v4h4v4h12v-4h4v-4h-8v4
				h-4v-4h-4v-4h4v-4h4v4h16v4h-4v4h8v-4h4v-4h-4v-12h4v-4h-4v-4H451z M467,133h-12v-12h12V133z"/>
			<rect x="411" y="109" fill="#47BDEF" width="4" height="8"/>
			<rect x="415" y="105" fill="#47BDEF" width="4" height="4"/>
			<rect x="415" y="117" fill="#47BDEF" width="4" height="4"/>
			<rect x="423" y="121" fill="#47BDEF" width="4" height="4"/>
			<polygon fill="#47BDEF" points="407,121 407,117 403,117 403,121 403,125 415,125 415,121 			"/>
			<polygon fill="#47BDEF" points="399,125 399,121 395,121 395,113 391,113 391,125 			"/>
			<polygon fill="#47BDEF" points="395,101 391,101 391,109 395,109 395,105 399,105 399,97 395,97 			"/>
			<polygon fill="#47BDEF" points="407,113 407,101 411,101 411,105 415,105 415,101 419,101 419,97 415,97 411,97 411,93 407,93 
				407,97 403,97 403,109 399,109 399,117 403,117 403,113 			"/>
			<polygon fill="#47BDEF" points="447,73 451,73 451,65 439,65 439,69 447,69 			"/>
			<polygon fill="#47BDEF" points="451,81 451,77 443,77 443,81 439,81 439,85 435,85 435,93 439,93 439,89 443,89 443,85 447,85 
				447,81 			"/>
			<rect x="415" y="65" fill="#47BDEF" width="8" height="4"/>
			<path fill="#47BDEF" d="M397,85h8c3.3,0,6-2.7,6-6v-8c0-3.3-2.7-6-6-6h-8c-3.3,0-6,2.7-6,6v8C391,82.3,393.7,85,397,85z M395,71
				c0-1.1,0.9-2,2-2h8c1.1,0,2,0.9,2,2v8c0,1.1-0.9,2-2,2h-8c-1.1,0-2-0.9-2-2V71z"/>
			<path fill="#47BDEF" d="M405,129h-8c-3.3,0-6,2.7-6,6v8c0,3.3,2.7,6,6,6h8c3.3,0,6-2.7,6-6v-8C411,131.7,408.3,129,405,129z
				 M407,143c0,1.1-0.9,2-2,2h-8c-1.1,0-2-0.9-2-2v-8c0-1.1,0.9-2,2-2h8c1.1,0,2,0.9,2,2V143z"/>
			<path fill="#47BDEF" d="M469,65h-8c-3.3,0-6,2.7-6,6v8c0,3.3,2.7,6,6,6h8c3.3,0,6-2.7,6-6v-8C475,67.7,472.3,65,469,65z M471,79
				c0,1.1-0.9,2-2,2h-8c-1.1,0-2-0.9-2-2v-8c0-1.1,0.9-2,2-2h8c1.1,0,2,0.9,2,2V79z"/>
		</g>
		<g>
			<path fill="#47BDEF" d="M467,78h-4c-0.6,0-1-0.4-1-1v-4c0-0.6,0.4-1,1-1h4c0.6,0,1,0.4,1,1v4C468,77.6,467.6,78,467,78z"/>
		</g>
	</g>
</g>
<g>
	<ellipse transform="matrix(0.7071 -0.7071 0.7071 0.7071 56.1623 339.5879)" fill="#47BDEF" cx="438" cy="102" rx="2" ry="2"/>
	<ellipse transform="matrix(0.7071 -0.7071 0.7071 0.7071 49.0913 342.5168)" fill="#47BDEF" cx="438" cy="112" rx="2" ry="2"/>
	<path fill="#47BDEF" d="M443,96h-16.6c-0.3,0-0.5,0.1-0.7,0.3l-3.4,3.4c-0.2,0.2-0.3,0.4-0.3,0.7V117c0,0.6,0.4,1,1,1h20
		c0.6,0,1-0.4,1-1V97C444,96.4,443.6,96,443,96z M432,112c0,1-0.4,2-1.2,2.8c-0.8,0.8-1.8,1.2-2.8,1.2c-1.3,0-2.5-0.6-3.3-1.8
		c-0.9-1.3-0.9-3.1,0-4.4c0.8-1.2,2.1-1.8,3.3-1.8c1,0,2,0.4,2.7,1.1c0.1,0.1,0.1,0.2,0,0.2l-1,1c-0.1,0.1-0.1,0.1-0.2,0
		c-0.4-0.4-1-0.6-1.5-0.6c-0.7,0-1.4,0.4-1.9,1c-0.5,0.8-0.5,1.8,0,2.6c0.4,0.6,1.1,1,1.9,1c0.6,0,1.2-0.2,1.6-0.7
		c0.3-0.3,0.5-0.7,0.6-1h-2.4c-0.1,0-0.2-0.2-0.1-0.2l0.7-0.8c0.1-0.1,0.3-0.2,0.4-0.2h3c0.1,0,0.1,0.1,0.1,0.2L432,112z M432,104.2
		v1.8h-7v-7l1-1h1v6.2H432z M438,116c-2.2,0-4-1.8-4-4c0-2.2,1.8-4,4-4c2.2,0,4,1.8,4,4C442,114.2,440.2,116,438,116z M438,106
		c-2.2,0-4-1.8-4-4c0-2.2,1.8-4,4-4c2.2,0,4,1.8,4,4C442,104.2,440.2,106,438,106z"/>
</g>
<g opacity="0.25">
	<path fill="#797D80" d="M329.8,97.8L327,6h-2v91.1c0.3,0,0.7-0.1,1-0.1C327.4,97,328.7,97.3,329.8,97.8z"/>
	<path fill="#797D80" d="M325,116.9V201l8-1l-2.6-84c-1.3,0.7-2.8,1-4.4,1C325.7,117,325.3,117,325,116.9z"/>
	<path fill="#797D80" d="M161,97.1V6h-2l-2.8,91.8c1.2-0.5,2.5-0.8,3.8-0.8C160.3,97,160.7,97,161,97.1z"/>
	<path fill="#797D80" d="M155.6,116l-2.6,84l8,1v-84.1c-0.3,0-0.7,0.1-1,0.1C158.4,117,156.9,116.6,155.6,116z"/>
</g>
<g>
	<path fill="#797D80" d="M481,55h-96c-2.2,0-4,1.8-4,4v38.1c0.3,0,0.7-0.1,1-0.1s0.7,0,1,0.1V59c0-1.1,0.9-2,2-2h96c1.1,0,2,0.9,2,2
		v71.3V155c0,1.1-0.9,2-2,2h-96c-1.1,0-2-0.9-2-2v-24.7v-13.3c-0.3,0-0.7,0.1-1,0.1s-0.7,0-1-0.1V155c0,2.2,1.8,4,4,4h96
		c2.2,0,4-1.8,4-4V59C485,56.8,483.2,55,481,55z"/>
</g>
<g>
	<path fill="#797D80" d="M103,116.9v13.3V155c0,1.1-0.9,2-2,2H5c-1.1,0-2-0.9-2-2v-24.7v-16.6V59c0-1.1,0.9-2,2-2h96
		c1.1,0,2,0.9,2,2v38.1c0.3,0,0.7-0.1,1-0.1s0.7,0,1,0.1V59c0-2.2-1.8-4-4-4H5c-2.2,0-4,1.8-4,4v96c0,2.2,1.8,4,4,4h96
		c2.2,0,4-1.8,4-4v-38.1c-0.3,0-0.7,0.1-1,0.1S103.3,117,103,116.9z"/>
</g>
<g>
	<path fill="#797D80" d="M327,97.1V6c0-2.8-2.2-5-5-5H164c-2.8,0-5,2.2-5,5v91.1c0.3,0,0.7-0.1,1-0.1s0.7,0,1,0.1V14h164v83.1
		c0.3,0,0.7-0.1,1-0.1S326.7,97,327,97.1z M325,13H161V6c0-1.7,1.3-3,3-3h158c1.7,0,3,1.3,3,3V13z"/>
	<path fill="#797D80" d="M159,116.9V201h2v-84.1c-0.3,0-0.7,0.1-1,0.1S159.3,117,159,116.9z"/>
	<path fill="#797D80" d="M325,116.9V201h2v-84.1c-0.3,0-0.7,0.1-1,0.1S325.3,117,325,116.9z"/>
</g>
</svg>
