<?xml version="1.0" encoding="utf-8"?>
<!-- Generator: Adobe Illustrator 21.1.0, SVG Export Plug-In . SVG Version: 6.00 Build 0)  -->
<svg version="1.1" id="Ebene_1" xmlns="http://www.w3.org/2000/svg" xmlns:xlink="http://www.w3.org/1999/xlink" x="0px" y="0px"
	 viewBox="0 0 500 200" enable-background="new 0 0 500 200" xml:space="preserve">
<g id="XMLID_386_" opacity="5.000000e-02">
	<rect id="XMLID_934_" x="38" y="26" fill="#797D80" width="424" height="173"/>
</g>
<g id="XMLID_385_">
	<path id="XMLID_933_" fill="#FFFFFF" d="M47,199V49c0-2.2,1.8-4,4-4h398c2.2,0,4,1.8,4,4v150H47z"/>
</g>
<g id="XMLID_384_">
	<path id="XMLID_932_" fill="#FFFFFF" d="M48,199V49c0-1.7,1.3-3,3-3h398c1.7,0,3,1.3,3,3v150H48z"/>
</g>
<g id="XMLID_383_">
	<rect id="XMLID_931_" x="111" y="80" fill="#F7F7F7" width="1" height="99"/>
</g>
<g id="XMLID_382_">
	<rect id="XMLID_930_" x="81" y="80" fill="#F7F7F7" width="360" height="1"/>
</g>
<g id="XMLID_381_">
	<rect id="XMLID_929_" x="81" y="94" fill="#F7F7F7" width="360" height="1"/>
</g>
<g id="XMLID_380_">
	<rect id="XMLID_928_" x="81" y="108" fill="#F7F7F7" width="360" height="1"/>
</g>
<g id="XMLID_379_">
	<rect id="XMLID_927_" x="81" y="122" fill="#F7F7F7" width="360" height="1"/>
</g>
<g id="XMLID_378_">
	<rect id="XMLID_926_" x="81" y="136" fill="#F7F7F7" width="360" height="1"/>
</g>
<g id="XMLID_377_">
	<rect id="XMLID_925_" x="81" y="150" fill="#F7F7F7" width="360" height="1"/>
</g>
<g id="XMLID_376_">
	<rect id="XMLID_924_" x="81" y="164" fill="#F7F7F7" width="360" height="1"/>
</g>
<g id="XMLID_375_">
	<rect id="XMLID_923_" x="141" y="80" fill="#F7F7F7" width="1" height="99"/>
</g>
<g id="XMLID_374_">
	<rect id="XMLID_922_" x="171" y="80" fill="#F7F7F7" width="1" height="99"/>
</g>
<g id="XMLID_373_">
	<rect id="XMLID_921_" x="201" y="80" fill="#F7F7F7" width="1" height="99"/>
</g>
<g id="XMLID_372_">
	<rect id="XMLID_920_" x="231" y="80" fill="#F7F7F7" width="1" height="99"/>
</g>
<g id="XMLID_371_">
	<rect id="XMLID_919_" x="261" y="80" fill="#F7F7F7" width="1" height="99"/>
</g>
<g id="XMLID_370_">
	<rect id="XMLID_918_" x="291" y="80" fill="#F7F7F7" width="1" height="99"/>
</g>
<g id="XMLID_369_">
	<rect id="XMLID_917_" x="321" y="80" fill="#F7F7F7" width="1" height="99"/>
</g>
<g id="XMLID_368_">
	<rect id="XMLID_916_" x="351" y="80" fill="#F7F7F7" width="1" height="99"/>
</g>
<g id="XMLID_367_">
	<rect id="XMLID_915_" x="381" y="80" fill="#F7F7F7" width="1" height="99"/>
</g>
<g id="XMLID_366_">
	<rect id="XMLID_914_" x="411" y="80" fill="#F7F7F7" width="1" height="99"/>
</g>
<g id="XMLID_365_">
	<rect id="XMLID_913_" x="441" y="80" fill="#F7F7F7" width="1" height="99"/>
</g>
<g id="XMLID_364_" opacity="0.5">
	<polygon id="XMLID_439_" fill="#FFFFFF" points="141.5,86.5 111.5,167.5 141.5,103.5 171.5,135.5 201.5,145.5 231.5,129.5 
		261.5,140.5 291.5,119.5 261.5,135.7 231.5,124.5 201.5,135.5 171.8,124.8 	"/>
</g>
<g id="XMLID_363_" opacity="0.5">
	<polygon id="XMLID_438_" fill="#FFFFFF" points="411.5,172.5 381.5,162.5 351.5,151.5 321.5,129.5 291.5,119.5 321.5,124.7 
		351.5,140.5 381.5,156.5 	"/>
</g>
<g id="XMLID_362_">
	<rect id="XMLID_912_" x="80" y="178" fill="#797D80" width="362" height="1"/>
</g>
<g id="XMLID_361_">
	<rect id="XMLID_911_" x="81" y="80" fill="#797D80" width="1" height="99"/>
</g>
<g id="XMLID_360_" opacity="0.25">
	<polygon id="XMLID_415_" fill="#47BDEF" points="440.8,178.5 81.5,178.5 111.5,167.5 141.5,103.5 171.5,135.5 201.5,145.5 
		231.5,129.5 261.5,140.5 291.5,119.5 321.5,130.2 351.5,151.5 381.5,162.5 411.5,172.5 	"/>
</g>
<g id="XMLID_359_">
	<path id="XMLID_910_" fill="#FFFFFF" d="M193,38v-3c0-1.7,1.3-3,3-3h10c1.7,0,3,1.3,3,3v3c0,1.7-1.3,3-3,3h-10
		C194.3,41,193,39.7,193,38z"/>
</g>
<g id="XMLID_358_">
	<rect id="XMLID_909_" x="405" y="64" fill="#797D80" width="6" height="5"/>
</g>
<g id="XMLID_357_">
	<rect id="XMLID_908_" x="405" y="54" fill="#47BDEF" width="6" height="5"/>
</g>
<g id="XMLID_356_">
	<path id="XMLID_907_" fill="#FFFFFF" d="M213,38v-3c0-1.7,1.3-3,3-3h26c1.7,0,3,1.3,3,3v3c0,1.7-1.3,3-3,3h-26
		C214.3,41,213,39.7,213,38z"/>
</g>
<g id="XMLID_355_">
	<path id="XMLID_906_" fill="#FFFFFF" d="M167,38v-3c0-1.7,1.3-3,3-3h16c1.7,0,3,1.3,3,3v3c0,1.7-1.3,3-3,3h-16
		C168.3,41,167,39.7,167,38z"/>
</g>
<g id="XMLID_354_">
	<path id="XMLID_905_" fill="#FFFFFF" d="M141,38v-3c0-1.7,1.3-3,3-3h16c1.7,0,3,1.3,3,3v3c0,1.7-1.3,3-3,3h-16
		C142.3,41,141,39.7,141,38z"/>
</g>
<g id="XMLID_353_">
	<path id="XMLID_904_" fill="#FFFFFF" d="M123,38v-3c0-1.7,1.3-3,3-3h8c1.7,0,3,1.3,3,3v3c0,1.7-1.3,3-3,3h-8
		C124.3,41,123,39.7,123,38z"/>
</g>
<g id="XMLID_352_">
	<circle id="XMLID_903_" fill="#47BDEF" cx="231.5" cy="129.5" r="1.5"/>
</g>
<g id="XMLID_351_">
	<circle id="XMLID_902_" fill="#47BDEF" cx="261.5" cy="140.5" r="1.5"/>
</g>
<g id="XMLID_350_">
	<circle id="XMLID_901_" fill="#47BDEF" cx="291.5" cy="119.5" r="1.5"/>
</g>
<g id="XMLID_349_">
	<circle id="XMLID_900_" fill="#47BDEF" cx="321.5" cy="129.5" r="1.5"/>
</g>
<g id="XMLID_348_">
	<circle id="XMLID_899_" fill="#47BDEF" cx="351.5" cy="151.5" r="1.5"/>
</g>
<g id="XMLID_347_">
	<circle id="XMLID_898_" fill="#47BDEF" cx="381.5" cy="162.5" r="1.5"/>
</g>
<g id="XMLID_346_">
	<circle id="XMLID_897_" fill="#47BDEF" cx="411.5" cy="172.5" r="1.5"/>
</g>
<g id="XMLID_345_">
	<circle id="XMLID_896_" fill="#47BDEF" cx="441.5" cy="178.5" r="1.5"/>
</g>
<g id="XMLID_344_">
	<circle id="XMLID_895_" fill="#47BDEF" cx="81.5" cy="178.5" r="1.5"/>
</g>
<g id="XMLID_343_">
	<circle id="XMLID_894_" fill="#47BDEF" cx="111.5" cy="167.5" r="1.5"/>
</g>
<g id="XMLID_342_">
	<circle id="XMLID_893_" fill="#47BDEF" cx="171.5" cy="135.5" r="1.5"/>
</g>
<g id="XMLID_341_">
	<circle id="XMLID_892_" fill="#47BDEF" cx="201.5" cy="145.5" r="1.5"/>
</g>
<g id="XMLID_340_">
	<circle id="XMLID_891_" fill="#797D80" cx="141.5" cy="86.5" r="1.5"/>
</g>
<g id="XMLID_339_">
	<circle id="XMLID_890_" fill="#797D80" cx="171.5" cy="124.5" r="1.5"/>
</g>
<g id="XMLID_338_">
	<circle id="XMLID_889_" fill="#797D80" cx="201.5" cy="135.5" r="1.5"/>
</g>
<g id="XMLID_337_">
	<circle id="XMLID_888_" fill="#797D80" cx="231.5" cy="124.5" r="1.5"/>
</g>
<g id="XMLID_336_">
	<circle id="XMLID_887_" fill="#797D80" cx="261.5" cy="135.5" r="1.5"/>
</g>
<g id="XMLID_335_">
	<circle id="XMLID_886_" fill="#797D80" cx="321.5" cy="124.5" r="1.5"/>
</g>
<g id="XMLID_334_">
	<circle id="XMLID_885_" fill="#797D80" cx="351.5" cy="140.5" r="1.5"/>
</g>
<g id="XMLID_333_">
	<circle id="XMLID_884_" fill="#797D80" cx="381.5" cy="156.5" r="1.5"/>
</g>
<g id="XMLID_332_">
	<circle id="XMLID_883_" fill="#47BDEF" cx="141.5" cy="103.5" r="1.5"/>
</g>
<g id="XMLID_331_">
	
		<rect id="XMLID_437_" x="80.5" y="172.5" transform="matrix(0.9387 -0.3448 0.3448 0.9387 -53.7326 43.8822)" fill="#47BDEF" width="32" height="1"/>
</g>
<g id="XMLID_330_">
	
		<rect id="XMLID_436_" x="396" y="147.5" transform="matrix(0.4706 -0.8824 0.8824 0.4706 64.7647 436.9412)" fill="#797D80" width="1" height="34"/>
</g>
<g id="XMLID_329_">
	
		<rect id="XMLID_435_" x="366" y="131.5" transform="matrix(0.4706 -0.8824 0.8824 0.4706 63 402)" fill="#797D80" width="1" height="34"/>
</g>
<g id="XMLID_328_">
	
		<rect id="XMLID_434_" x="336" y="115.5" transform="matrix(0.4706 -0.8824 0.8824 0.4706 61.2353 367.0588)" fill="#797D80" width="1" height="34"/>
</g>
<g id="XMLID_327_">
	
		<rect id="XMLID_433_" x="306" y="106.8" transform="matrix(0.1644 -0.9864 0.9864 0.1644 135.7717 404.2731)" fill="#797D80" width="1" height="30.4"/>
</g>
<g id="XMLID_326_">
	
		<rect id="XMLID_432_" x="259.5" y="127" transform="matrix(0.8824 -0.4705 0.4705 0.8824 -27.4726 145.0827)" fill="#797D80" width="34" height="1"/>
</g>
<g id="XMLID_325_">
	
		<rect id="XMLID_431_" x="246" y="114" transform="matrix(0.3443 -0.9389 0.9389 0.3443 39.5873 316.6799)" fill="#797D80" width="1" height="32"/>
</g>
<g id="XMLID_324_">
	
		<rect id="XMLID_430_" x="200.5" y="129.5" transform="matrix(0.9387 -0.3448 0.3448 0.9387 -31.5474 82.6213)" fill="#797D80" width="32" height="1"/>
</g>
<g id="XMLID_323_">
	
		<rect id="XMLID_429_" x="186" y="114" transform="matrix(0.3443 -0.9389 0.9389 0.3443 0.2421 260.3466)" fill="#797D80" width="1" height="32"/>
</g>
<g id="XMLID_322_">
	
		<rect id="XMLID_428_" x="156" y="81.3" transform="matrix(0.7849 -0.6197 0.6197 0.7849 -31.7065 119.6708)" fill="#797D80" width="1" height="48.4"/>
</g>
<g id="XMLID_321_">
	
		<rect id="XMLID_427_" x="83.3" y="126.5" transform="matrix(0.3477 -0.9376 0.9376 0.3477 -36.5597 201.4499)" fill="#797D80" width="86.4" height="1"/>
</g>
<g id="XMLID_320_">
	
		<rect id="XMLID_426_" x="91.2" y="135" transform="matrix(0.4248 -0.9053 0.9053 0.4248 -49.9042 192.4566)" fill="#47BDEF" width="70.7" height="1"/>
</g>
<g id="XMLID_319_">
	
		<rect id="XMLID_425_" x="199.5" y="137" transform="matrix(0.8824 -0.4705 0.4705 0.8824 -39.2331 118.0295)" fill="#47BDEF" width="34" height="1"/>
</g>
<g id="XMLID_318_">
	
		<rect id="XMLID_424_" x="246" y="119" transform="matrix(0.3443 -0.9389 0.9389 0.3443 34.8929 319.9586)" fill="#47BDEF" width="1" height="32"/>
</g>
<g id="XMLID_317_">
	
		<rect id="XMLID_423_" x="426" y="160.2" transform="matrix(0.1961 -0.9806 0.9806 0.1961 170.7646 559.2993)" fill="#47BDEF" width="1" height="30.6"/>
</g>
<g id="XMLID_316_">
	
		<rect id="XMLID_422_" x="396" y="151.7" transform="matrix(0.3162 -0.9487 0.9487 0.3162 112.2112 490.6848)" fill="#47BDEF" width="1" height="31.6"/>
</g>
<g id="XMLID_315_">
	
		<rect id="XMLID_421_" x="366" y="141" transform="matrix(0.3443 -0.9389 0.9389 0.3443 92.9271 447.0502)" fill="#47BDEF" width="1" height="32"/>
</g>
<g id="XMLID_314_">
	
		<rect id="XMLID_420_" x="336" y="121.9" transform="matrix(0.5914 -0.8064 0.8064 0.5914 24.2062 328.7687)" fill="#47BDEF" width="1" height="37.2"/>
</g>
<g id="XMLID_313_">
	
		<rect id="XMLID_419_" x="306" y="108.7" transform="matrix(0.3162 -0.9487 0.9487 0.3162 91.4651 375.9011)" fill="#47BDEF" width="1" height="31.6"/>
</g>
<g id="XMLID_312_">
	
		<rect id="XMLID_418_" x="258.2" y="129.5" transform="matrix(0.8194 -0.5733 0.5733 0.8194 -24.5802 181.9899)" fill="#47BDEF" width="36.6" height="1"/>
</g>
<g id="XMLID_311_">
	
		<rect id="XMLID_417_" x="186" y="124.7" transform="matrix(0.3162 -0.9487 0.9487 0.3162 -5.7665 272.9994)" fill="#47BDEF" width="1" height="31.6"/>
</g>
<g id="XMLID_310_">
	
		<rect id="XMLID_416_" x="156" y="97.6" transform="matrix(0.7295 -0.6839 0.6839 0.7295 -39.4035 139.3571)" fill="#47BDEF" width="1" height="43.9"/>
</g>
<g id="XMLID_309_" opacity="0.1">
	<path id="XMLID_882_" fill="#797D80" d="M38,12V5c0-1.7,1.3-3,3-3h418c1.7,0,3,1.3,3,3v7H38z"/>
</g>
<g id="XMLID_287_">
	<g id="XMLID_304_" opacity="0.25">
		<g id="XMLID_305_">
			<g id="XMLID_306_">
				<polygon id="XMLID_880_" fill="#797D80" points="470,199 462,200 462,5 464,5 				"/>
			</g>
		</g>
	</g>
	<g id="XMLID_301_" opacity="0.25">
		<g id="XMLID_302_">
			<g id="XMLID_303_">
				<polygon id="XMLID_879_" fill="#797D80" points="30,199 38,200 38,5 36,5 				"/>
			</g>
		</g>
	</g>
	<g id="XMLID_292_">
		<g id="XMLID_293_">
			<g id="XMLID_299_">
				<g id="XMLID_300_">
					<circle id="XMLID_873_" fill="#797D80" cx="44" cy="7" r="2"/>
				</g>
			</g>
			<g id="XMLID_297_" opacity="0.75">
				<g id="XMLID_298_">
					<circle id="XMLID_872_" fill="#797D80" cx="60" cy="7" r="2"/>
				</g>
			</g>
			<g id="XMLID_294_" opacity="0.5">
				<g id="XMLID_296_">
					<circle id="XMLID_871_" fill="#797D80" cx="52" cy="7" r="2"/>
				</g>
			</g>
		</g>
	</g>
	<g id="XMLID_289_">
		<path id="XMLID_1168_" fill="#797D80" d="M459,0H41c-2.8,0-5,2.2-5,5v195h2V13h424v187h2V5C464,2.2,461.8,0,459,0z M38,12V5
			c0-1.7,1.3-3,3-3h418c1.7,0,3,1.3,3,3v7H38z"/>
	</g>
	<g id="XMLID_288_">
		<rect id="XMLID_870_" y="199" fill="#797D80" width="500" height="1"/>
	</g>
</g>
<g id="XMLID_283_">
	<rect id="XMLID_867_" x="196" y="35" fill="#797D80" width="10" height="3"/>
</g>
<g id="XMLID_282_" opacity="0.75">
	<rect id="XMLID_413_" x="216" y="35" fill="#797D80" width="26" height="3"/>
</g>
<g id="XMLID_281_" opacity="0.75">
	<rect id="XMLID_412_" x="170" y="35" fill="#797D80" width="16" height="3"/>
</g>
<g id="XMLID_280_" opacity="0.75">
	<rect id="XMLID_411_" x="144" y="35" fill="#797D80" width="16" height="3"/>
</g>
<g id="XMLID_279_" opacity="0.75">
	<rect id="XMLID_410_" x="126" y="35" fill="#797D80" width="8" height="3"/>
</g>
<g id="XMLID_278_">
	<rect id="XMLID_866_" x="57" y="35" fill="#797D80" width="58" height="3"/>
</g>
<g id="XMLID_277_">
	<rect id="XMLID_865_" x="57" y="63" fill="#797D80" width="26" height="5"/>
</g>
<g id="XMLID_276_" opacity="0.75">
	<rect id="XMLID_409_" x="57" y="79" fill="#797D80" width="13" height="3"/>
</g>
<g id="XMLID_275_" opacity="0.75">
	<rect id="XMLID_408_" x="57" y="93" fill="#797D80" width="13" height="3"/>
</g>
<g id="XMLID_274_" opacity="0.75">
	<rect id="XMLID_407_" x="57" y="107" fill="#797D80" width="13" height="3"/>
</g>
<g id="XMLID_273_" opacity="0.75">
	<rect id="XMLID_406_" x="57" y="121" fill="#797D80" width="13" height="3"/>
</g>
<g id="XMLID_272_" opacity="0.75">
	<rect id="XMLID_405_" x="57" y="135" fill="#797D80" width="13" height="3"/>
</g>
<g id="XMLID_271_" opacity="0.75">
	<rect id="XMLID_404_" x="57" y="149" fill="#797D80" width="13" height="3"/>
</g>
<g id="XMLID_270_" opacity="0.75">
	<rect id="XMLID_403_" x="60" y="163" fill="#797D80" width="10" height="3"/>
</g>
<g id="XMLID_269_" opacity="0.75">
	<rect id="XMLID_402_" x="67" y="177" fill="#797D80" width="3" height="3"/>
</g>
<g id="XMLID_268_" opacity="0.75">
	<rect id="XMLID_401_" x="105" y="187" fill="#797D80" width="13" height="3"/>
</g>
<g id="XMLID_265_" opacity="0.75">
	<rect id="XMLID_400_" x="135" y="187" fill="#797D80" width="13" height="3"/>
</g>
<g id="XMLID_264_" opacity="0.75">
	<rect id="XMLID_399_" x="165" y="187" fill="#797D80" width="13" height="3"/>
</g>
<g id="XMLID_263_" opacity="0.75">
	<rect id="XMLID_398_" x="195" y="187" fill="#797D80" width="13" height="3"/>
</g>
<g id="XMLID_262_" opacity="0.75">
	<rect id="XMLID_397_" x="225" y="187" fill="#797D80" width="13" height="3"/>
</g>
<g id="XMLID_261_" opacity="0.75">
	<rect id="XMLID_396_" x="255" y="187" fill="#797D80" width="13" height="3"/>
</g>
<g id="XMLID_260_" opacity="0.75">
	<rect id="XMLID_395_" x="285" y="187" fill="#797D80" width="13" height="3"/>
</g>
<g id="XMLID_259_" opacity="0.75">
	<rect id="XMLID_394_" x="315" y="187" fill="#797D80" width="13" height="3"/>
</g>
<g id="XMLID_258_" opacity="0.75">
	<rect id="XMLID_393_" x="345" y="187" fill="#797D80" width="13" height="3"/>
</g>
<g id="XMLID_257_" opacity="0.75">
	<rect id="XMLID_392_" x="375" y="187" fill="#797D80" width="13" height="3"/>
</g>
<g id="XMLID_256_" opacity="0.75">
	<rect id="XMLID_391_" x="405" y="187" fill="#797D80" width="13" height="3"/>
</g>
<g id="XMLID_255_" opacity="0.75">
	<rect id="XMLID_390_" x="435" y="187" fill="#797D80" width="13" height="3"/>
</g>
<g id="XMLID_254_" opacity="0.75">
	<rect id="XMLID_389_" x="416" y="65" fill="#797D80" width="26" height="3"/>
</g>
<g id="XMLID_253_" opacity="0.75">
	<rect id="XMLID_388_" x="416" y="55" fill="#797D80" width="18" height="3"/>
</g>
<g id="XMLID_31_">
	<rect id="XMLID_32_" x="38" y="13" fill="#797D80" width="424" height="13"/>
</g>
<g id="XMLID_29_">
	<polygon id="XMLID_30_" fill="#FFFFFF" points="448,19 447,18 451,18 449,20 	"/>
</g>
<g id="XMLID_27_">
	<rect id="XMLID_28_" x="412" y="15" fill="#FFFFFF" width="1" height="8"/>
</g>
<g id="XMLID_25_">
	<rect id="XMLID_26_" x="60" y="14" fill="#FFFFFF" width="1" height="9"/>
</g>
<g id="XMLID_20_">
	<g id="XMLID_23_">
		<rect id="XMLID_24_" x="418" y="17" fill="#FFFFFF" width="24" height="4"/>
	</g>
	<g id="XMLID_21_" opacity="0.75">
		<g id="XMLID_22_">
			<path fill="#FFFFFF" d="M404,17c1.1,0,2,0.9,2,2s-0.9,2-2,2s-2-0.9-2-2S402.9,17,404,17 M404,16c-1.7,0-3,1.3-3,3
				c0,1.7,1.3,3,3,3s3-1.3,3-3C407,17.3,405.7,16,404,16L404,16z"/>
		</g>
	</g>
</g>
<g id="XMLID_18_" opacity="0.5">
	<path id="XMLID_19_" fill="#FFFFFF" d="M123,22h24c0.6,0,1-0.4,1-1v-4c0-0.6-0.4-1-1-1h-24c-0.6,0-1,0.4-1,1v4
		C122,21.6,122.4,22,123,22z"/>
</g>
<g id="XMLID_16_">
	<rect id="XMLID_17_" x="94" y="17" fill="#FFFFFF" width="20" height="4"/>
</g>
<g id="XMLID_14_">
	<g id="XMLID_15_">
		<path fill="#FFFFFF" d="M53,16c0.6,0,1,0.4,1,1v5h-5c-0.6,0-1-0.4-1-1v-4c0-0.6,0.4-1,1-1H53 M53,15h-4c-1.1,0-2,0.9-2,2v4
			c0,1.1,0.9,2,2,2h6v-6C55,15.9,54.1,15,53,15L53,15z"/>
	</g>
</g>
<g id="XMLID_12_">
	<g id="XMLID_13_">
		<path fill="#FFFFFF" d="M50,21h3v-3c0-0.6-0.4-1-1-1h-2c-0.6,0-1,0.4-1,1v2C49,20.6,49.4,21,50,21z"/>
	</g>
</g>
<g id="XMLID_10_" opacity="0.5">
	<rect id="XMLID_11_" x="66" y="17" fill="#FFFFFF" width="20" height="4"/>
</g>
</svg>
