<?xml version="1.0" encoding="utf-8"?>
<!-- Generator: Adobe Illustrator 21.1.0, SVG Export Plug-In . SVG Version: 6.00 Build 0)  -->
<svg version="1.1" id="Ebene_1" xmlns="http://www.w3.org/2000/svg" xmlns:xlink="http://www.w3.org/1999/xlink" x="0px" y="0px"
	 viewBox="0 0 500 200" enable-background="new 0 0 500 200" xml:space="preserve">
<g id="XMLID_386_" opacity="5.000000e-02">
	<rect id="XMLID_934_" x="38" y="44" fill="#797D80" width="424" height="155"/>
</g>
<g id="XMLID_385_">
	<path id="XMLID_933_" fill="#FFFFFF" d="M47,128V72c0-1.1,0.9-2,2-2h402c1.1,0,2,0.9,2,2v56c0,1.1-0.9,2-2,2H49
		C47.9,130,47,129.1,47,128z"/>
</g>
<g id="XMLID_25_" opacity="0.25">
	<g id="XMLID_26_">
		<path fill="#797D80" d="M451,71c0.6,0,1,0.4,1,1v56c0,0.6-0.4,1-1,1H49c-0.6,0-1-0.4-1-1V72c0-0.6,0.4-1,1-1H451 M451,70H49
			c-1.1,0-2,0.9-2,2v56c0,1.1,0.9,2,2,2h402c1.1,0,2-0.9,2-2V72C453,70.9,452.1,70,451,70L451,70z"/>
	</g>
</g>
<g id="XMLID_309_" opacity="0.1">
	<path id="XMLID_882_" fill="#797D80" d="M38,12V5c0-1.7,1.3-3,3-3h418c1.7,0,3,1.3,3,3v7H38z"/>
</g>
<g id="XMLID_287_">
	<g id="XMLID_304_" opacity="0.25">
		<g id="XMLID_305_">
			<g id="XMLID_306_">
				<polygon id="XMLID_880_" fill="#797D80" points="470,199 462,200 462,5 464,5 				"/>
			</g>
		</g>
	</g>
	<g id="XMLID_301_" opacity="0.25">
		<g id="XMLID_302_">
			<g id="XMLID_303_">
				<polygon id="XMLID_879_" fill="#797D80" points="30,199 38,200 38,5 36,5 				"/>
			</g>
		</g>
	</g>
	<g id="XMLID_292_">
		<g id="XMLID_293_">
			<g id="XMLID_299_">
				<g id="XMLID_300_">
					<circle id="XMLID_873_" fill="#797D80" cx="44" cy="7" r="2"/>
				</g>
			</g>
			<g id="XMLID_297_" opacity="0.75">
				<g id="XMLID_298_">
					<circle id="XMLID_872_" fill="#797D80" cx="60" cy="7" r="2"/>
				</g>
			</g>
			<g id="XMLID_294_" opacity="0.5">
				<g id="XMLID_296_">
					<circle id="XMLID_871_" fill="#797D80" cx="52" cy="7" r="2"/>
				</g>
			</g>
		</g>
	</g>
	<g id="XMLID_289_">
		<path id="XMLID_1168_" fill="#797D80" d="M459,0H41c-2.8,0-5,2.2-5,5v195h2V13h424v187h2V5C464,2.2,461.8,0,459,0z M38,12V5
			c0-1.7,1.3-3,3-3h418c1.7,0,3,1.3,3,3v7H38z"/>
	</g>
	<g id="XMLID_288_">
		<rect id="XMLID_870_" y="199" fill="#797D80" width="500" height="1"/>
	</g>
</g>
<g id="XMLID_282_">
	<rect id="XMLID_413_" x="47" y="33" fill="#797D80" width="30" height="5"/>
</g>
<g id="XMLID_16_" opacity="0.25">
	<g id="XMLID_17_">
		<path fill="#797D80" d="M452,32v7h-38v-7H452 M452,31h-38c-0.6,0-1,0.4-1,1v7c0,0.6,0.4,1,1,1h38c0.6,0,1-0.4,1-1v-7
			C453,31.4,452.6,31,452,31L452,31z"/>
	</g>
</g>
<g id="XMLID_54_">
	<g id="XMLID_55_">
		<path fill="#47BDEF" d="M170,114v7h-38v-7H170 M170,113h-38c-0.6,0-1,0.4-1,1v7c0,0.6,0.4,1,1,1h38c0.6,0,1-0.4,1-1v-7
			C171,113.4,170.6,113,170,113L170,113z"/>
	</g>
</g>
<g id="XMLID_12_">
	<path id="XMLID_13_" fill="#FFFFFF" d="M47,58v-7c0-0.6,0.4-1,1-1h40c0.6,0,1,0.4,1,1v7c0,0.6-0.4,1-1,1H48C47.4,59,47,58.6,47,58z
		"/>
</g>
<g id="XMLID_6_" opacity="0.5">
	<rect id="XMLID_11_" x="56" y="53" fill="#797D80" width="21" height="3"/>
</g>
<g id="XMLID_14_" opacity="0.5">
	<rect id="XMLID_15_" x="50" y="53" fill="#797D80" width="3" height="3"/>
</g>
<g id="XMLID_21_" opacity="0.5">
	<rect id="XMLID_22_" x="440" y="53" fill="#797D80" width="4" height="4"/>
</g>
<g id="XMLID_30_">
	<rect id="XMLID_31_" x="424" y="83" fill="#47BDEF" width="18" height="5"/>
</g>
<g id="XMLID_32_">
	<rect id="XMLID_33_" x="424" y="112" fill="#797D80" width="18" height="5"/>
</g>
<g id="XMLID_39_">
	<rect id="XMLID_41_" x="131" y="80" fill="#797D80" width="24" height="4"/>
</g>
<g id="XMLID_40_">
	<rect id="XMLID_43_" x="131" y="90" opacity="0.75" fill="#797D80" width="12" height="3"/>
</g>
<g id="XMLID_48_">
	<rect id="XMLID_49_" x="155" y="90" fill="#797D80" width="28" height="3"/>
</g>
<g id="XMLID_50_">
	<rect id="XMLID_51_" x="155" y="97" fill="#797D80" width="18" height="3"/>
</g>
<g id="XMLID_52_">
	<rect id="XMLID_53_" x="155" y="104" fill="#797D80" width="8" height="3"/>
</g>
<g id="XMLID_37_">
	<rect id="XMLID_58_" x="132" y="114" fill="#47BDEF" width="31" height="7"/>
</g>
<g id="XMLID_44_">
	<rect id="XMLID_45_" x="131" y="97" opacity="0.75" fill="#797D80" width="12" height="3"/>
</g>
<g id="XMLID_46_">
	<rect id="XMLID_47_" x="131" y="104" opacity="0.75" fill="#797D80" width="12" height="3"/>
</g>
<g id="XMLID_57_">
	<rect id="XMLID_60_" x="141" y="116" fill="#FFFFFF" width="13" height="3"/>
</g>
<g id="XMLID_61_">
	<polygon id="XMLID_62_" fill="#47BDEF" points="167,118 168,117 165,117 166,118 	"/>
</g>
<g id="XMLID_23_" opacity="0.5">
	<g id="XMLID_24_">
		<path fill="#797D80" d="M435,54c0.6,0,1,0.4,1,1s-0.4,1-1,1h-4c-0.6,0-1-0.4-1-1s0.4-1,1-1H435 M435,53h-4c-1.1,0-2,0.9-2,2
			s0.9,2,2,2h4c1.1,0,2-0.9,2-2S436.1,53,435,53L435,53z"/>
	</g>
</g>
<g id="XMLID_18_">
	<rect id="XMLID_20_" x="422" y="53" fill="#797D80" width="4" height="4"/>
</g>
<g id="XMLID_19_">
	<g id="XMLID_38_">
		<path fill="#797D80" d="M121,81v2h-2v-2H121 M123,79h-6v6h6V79L123,79z"/>
	</g>
</g>
<g id="XMLID_27_" opacity="0.25">
	<rect id="XMLID_29_" x="413" y="71" fill="#797D80" width="1" height="58"/>
</g>
<g id="XMLID_34_" opacity="0.25">
	<rect id="XMLID_35_" x="106" y="71" fill="#797D80" width="1" height="58"/>
</g>
<g id="XMLID_3427_">
	<g id="XMLID_3579_">
		<g id="XMLID_3580_">
			<g id="XMLID_3581_">
				<path id="XMLID_3582_" fill="#47BDEF" d="M66,80H56v10h10V80z M64,88h-6v-6h6V88z"/>
			</g>
		</g>
	</g>
	<g id="XMLID_3575_">
		<g id="XMLID_3576_">
			<g id="XMLID_3577_">
				<rect id="XMLID_3578_" x="59" y="83" fill="#47BDEF" width="4" height="4"/>
			</g>
		</g>
	</g>
	<g id="XMLID_107_">
		<g id="XMLID_108_">
			<g id="XMLID_109_">
				<path id="XMLID_110_" fill="#47BDEF" d="M66,110H56v10h10V110z M64,118h-6v-6h6V118z"/>
			</g>
		</g>
	</g>
	<g id="XMLID_103_">
		<g id="XMLID_104_">
			<g id="XMLID_105_">
				<rect id="XMLID_106_" x="59" y="113" fill="#47BDEF" width="4" height="4"/>
			</g>
		</g>
	</g>
	<g id="XMLID_3559_">
		<g id="XMLID_3560_">
			<g id="XMLID_3561_">
				<path id="XMLID_3562_" fill="#47BDEF" d="M86,80v10h10V80H86z M94,88h-6v-6h6V88z"/>
			</g>
		</g>
	</g>
	<g id="XMLID_3555_">
		<g id="XMLID_3556_">
			<g id="XMLID_3557_">
				<rect id="XMLID_3558_" x="89" y="83" fill="#47BDEF" width="4" height="4"/>
			</g>
		</g>
	</g>
	<g id="XMLID_3551_">
		<g id="XMLID_3552_">
			<g id="XMLID_3553_">
				<polygon id="XMLID_3554_" fill="#47BDEF" points="74,88 76,88 76,86 78,86 78,84 74,84 74,86 72,86 72,88 74,88 				"/>
			</g>
		</g>
	</g>
	<g id="XMLID_3547_">
		<g id="XMLID_3548_">
			<g id="XMLID_3549_">
				<rect id="XMLID_3550_" x="72" y="82" fill="#47BDEF" width="2" height="2"/>
			</g>
		</g>
	</g>
	<g id="XMLID_3543_">
		<g id="XMLID_3544_">
			<g id="XMLID_3545_">
				<rect id="XMLID_3546_" x="56" y="94" fill="#47BDEF" width="2" height="2"/>
			</g>
		</g>
	</g>
	<g id="XMLID_3539_">
		<g id="XMLID_3540_">
			<g id="XMLID_3541_">
				<rect id="XMLID_3542_" x="56" y="98" fill="#47BDEF" width="4" height="2"/>
			</g>
		</g>
	</g>
	<g id="XMLID_3535_">
		<g id="XMLID_3536_">
			<g id="XMLID_3537_">
				<rect id="XMLID_3538_" x="64" y="92" fill="#47BDEF" width="4" height="2"/>
			</g>
		</g>
	</g>
	<g id="XMLID_3531_">
		<g id="XMLID_3532_">
			<g id="XMLID_3533_">
				<rect id="XMLID_3534_" x="68" y="86" fill="#47BDEF" width="2" height="6"/>
			</g>
		</g>
	</g>
	<g id="XMLID_3527_">
		<g id="XMLID_3528_">
			<g id="XMLID_3529_">
				<rect id="XMLID_3530_" x="68" y="80" fill="#47BDEF" width="2" height="2"/>
			</g>
		</g>
	</g>
	<g id="XMLID_83_">
		<g id="XMLID_84_">
			<g id="XMLID_85_">
				<rect id="XMLID_86_" x="82" y="80" fill="#47BDEF" width="2" height="2"/>
			</g>
		</g>
	</g>
	<g id="XMLID_3518_">
		<g id="XMLID_3519_">
			<g id="XMLID_3520_">
				<rect id="XMLID_3522_" x="70" y="82" fill="#47BDEF" width="2" height="4"/>
			</g>
		</g>
	</g>
	<g id="XMLID_3514_">
		<g id="XMLID_3515_">
			<g id="XMLID_3516_">
				<rect id="XMLID_3517_" x="60" y="94" fill="#47BDEF" width="4" height="2"/>
			</g>
		</g>
	</g>
	<g id="XMLID_3510_">
		<g id="XMLID_3511_">
			<g id="XMLID_3512_">
				<rect id="XMLID_3513_" x="58" y="96" fill="#47BDEF" width="2" height="2"/>
			</g>
		</g>
	</g>
	<g id="XMLID_113_">
		<g id="XMLID_114_">
			<g id="XMLID_115_">
				<rect id="XMLID_116_" x="58" y="100" fill="#47BDEF" width="2" height="2"/>
			</g>
		</g>
	</g>
	<g id="XMLID_121_">
		<g id="XMLID_122_">
			<g id="XMLID_123_">
				<rect id="XMLID_124_" x="66" y="96" fill="#47BDEF" width="2" height="4"/>
			</g>
		</g>
	</g>
	<g id="XMLID_125_">
		<g id="XMLID_126_">
			<g id="XMLID_127_">
				<rect id="XMLID_128_" x="62" y="98" fill="#47BDEF" width="2" height="4"/>
			</g>
		</g>
	</g>
	<g id="XMLID_117_">
		<g id="XMLID_118_">
			<g id="XMLID_119_">
				<rect id="XMLID_120_" x="56" y="102" fill="#47BDEF" width="6" height="2"/>
			</g>
		</g>
	</g>
	<g id="XMLID_3506_">
		<g id="XMLID_3507_">
			<g id="XMLID_3508_">
				<rect id="XMLID_3509_" x="64" y="96" fill="#47BDEF" width="2" height="2"/>
			</g>
		</g>
	</g>
	<g id="XMLID_3502_">
		<g id="XMLID_3503_">
			<g id="XMLID_3504_">
				<rect id="XMLID_3505_" x="60" y="92" fill="#47BDEF" width="2" height="2"/>
			</g>
		</g>
	</g>
	<g id="XMLID_3498_">
		<g id="XMLID_3499_">
			<g id="XMLID_3500_">
				<rect id="XMLID_3501_" x="88" y="94" fill="#47BDEF" width="2" height="2"/>
			</g>
		</g>
	</g>
	<g id="XMLID_36_">
		<g id="XMLID_64_">
			<g id="XMLID_65_">
				<rect id="XMLID_66_" x="86" y="92" fill="#47BDEF" width="2" height="2"/>
			</g>
		</g>
	</g>
	<g id="XMLID_67_">
		<g id="XMLID_68_">
			<g id="XMLID_69_">
				<rect id="XMLID_70_" x="94" y="98" fill="#47BDEF" width="2" height="2"/>
			</g>
		</g>
	</g>
	<g id="XMLID_71_">
		<g id="XMLID_72_">
			<g id="XMLID_73_">
				<rect id="XMLID_74_" x="82" y="90" fill="#47BDEF" width="2" height="2"/>
			</g>
		</g>
	</g>
	<g id="XMLID_153_">
		<g id="XMLID_154_">
			<g id="XMLID_155_">
				<rect id="XMLID_156_" x="72" y="90" fill="#47BDEF" width="2" height="2"/>
			</g>
		</g>
	</g>
	<g id="XMLID_157_">
		<g id="XMLID_158_">
			<g id="XMLID_159_">
				<rect id="XMLID_160_" x="76" y="90" fill="#47BDEF" width="2" height="2"/>
			</g>
		</g>
	</g>
	<g id="XMLID_91_">
		<g id="XMLID_92_">
			<g id="XMLID_93_">
				<rect id="XMLID_94_" x="78" y="86" fill="#47BDEF" width="2" height="2"/>
			</g>
		</g>
	</g>
	<g id="XMLID_95_">
		<g id="XMLID_96_">
			<g id="XMLID_97_">
				<rect id="XMLID_98_" x="74" y="88" fill="#47BDEF" width="2" height="2"/>
			</g>
		</g>
	</g>
	<g id="XMLID_99_">
		<g id="XMLID_100_">
			<g id="XMLID_101_">
				<rect id="XMLID_102_" x="70" y="88" fill="#47BDEF" width="2" height="2"/>
			</g>
		</g>
	</g>
	<g id="XMLID_87_">
		<g id="XMLID_88_">
			<g id="XMLID_89_">
				<rect id="XMLID_90_" x="78" y="88" fill="#47BDEF" width="4" height="2"/>
			</g>
		</g>
	</g>
	<g id="XMLID_75_">
		<g id="XMLID_76_">
			<g id="XMLID_77_">
				<rect id="XMLID_78_" x="82" y="84" fill="#47BDEF" width="2" height="4"/>
			</g>
		</g>
	</g>
	<g id="XMLID_3494_">
		<g id="XMLID_3495_">
			<g id="XMLID_3496_">
				<rect id="XMLID_3497_" x="56" y="92" fill="#47BDEF" width="4" height="2"/>
			</g>
		</g>
	</g>
	<g id="XMLID_3490_">
		<g id="XMLID_3491_">
			<g id="XMLID_3492_">
				<rect id="XMLID_3493_" x="94" y="118" fill="#47BDEF" width="2" height="2"/>
			</g>
		</g>
	</g>
	<g id="XMLID_3486_">
		<g id="XMLID_3487_">
			<g id="XMLID_3488_">
				<rect id="XMLID_3489_" x="74" y="108" fill="#47BDEF" width="4" height="2"/>
			</g>
		</g>
	</g>
	<g id="XMLID_279_">
		<g id="XMLID_280_">
			<g id="XMLID_281_">
				<rect id="XMLID_283_" x="72" y="106" fill="#47BDEF" width="4" height="2"/>
			</g>
		</g>
	</g>
	<g id="XMLID_177_">
		<g id="XMLID_178_">
			<g id="XMLID_179_">
				<rect id="XMLID_180_" x="84" y="108" fill="#47BDEF" width="4" height="2"/>
			</g>
		</g>
	</g>
	<g id="XMLID_181_">
		<g id="XMLID_182_">
			<g id="XMLID_183_">
				<rect id="XMLID_184_" x="84" y="102" fill="#47BDEF" width="4" height="2"/>
			</g>
		</g>
	</g>
	<g id="XMLID_185_">
		<g id="XMLID_186_">
			<g id="XMLID_187_">
				<rect id="XMLID_188_" x="88" y="104" fill="#47BDEF" width="4" height="2"/>
			</g>
		</g>
	</g>
	<g id="XMLID_189_">
		<g id="XMLID_190_">
			<g id="XMLID_191_">
				<rect id="XMLID_192_" x="92" y="106" fill="#47BDEF" width="4" height="2"/>
			</g>
		</g>
	</g>
	<g id="XMLID_3482_">
		<g id="XMLID_3483_">
			<g id="XMLID_3484_">
				<rect id="XMLID_3485_" x="68" y="108" fill="#47BDEF" width="2" height="2"/>
			</g>
		</g>
	</g>
	<g id="XMLID_141_">
		<g id="XMLID_142_">
			<g id="XMLID_143_">
				<rect id="XMLID_144_" x="66" y="106" fill="#47BDEF" width="2" height="2"/>
			</g>
		</g>
	</g>
	<g id="XMLID_145_">
		<g id="XMLID_146_">
			<g id="XMLID_147_">
				<rect id="XMLID_148_" x="56" y="106" fill="#47BDEF" width="2" height="2"/>
			</g>
		</g>
	</g>
	<g id="XMLID_149_">
		<g id="XMLID_150_">
			<g id="XMLID_151_">
				<rect id="XMLID_152_" x="60" y="106" fill="#47BDEF" width="4" height="2"/>
			</g>
		</g>
	</g>
	<g id="XMLID_129_">
		<g id="XMLID_130_">
			<g id="XMLID_131_">
				<rect id="XMLID_132_" x="58" y="104" fill="#47BDEF" width="2" height="2"/>
			</g>
		</g>
	</g>
	<g id="XMLID_133_">
		<g id="XMLID_134_">
			<g id="XMLID_135_">
				<rect id="XMLID_136_" x="62" y="104" fill="#47BDEF" width="2" height="2"/>
			</g>
		</g>
	</g>
	<g id="XMLID_137_">
		<g id="XMLID_138_">
			<g id="XMLID_139_">
				<rect id="XMLID_140_" x="64" y="102" fill="#47BDEF" width="4" height="2"/>
			</g>
		</g>
	</g>
	<g id="XMLID_3478_">
		<g id="XMLID_3479_">
			<g id="XMLID_3480_">
				<rect id="XMLID_3481_" x="68" y="104" fill="#47BDEF" width="2" height="2"/>
			</g>
		</g>
	</g>
	<g id="XMLID_217_">
		<g id="XMLID_218_">
			<g id="XMLID_219_">
				<rect id="XMLID_220_" x="72" y="110" fill="#47BDEF" width="2" height="2"/>
			</g>
		</g>
	</g>
	<g id="XMLID_225_">
		<g id="XMLID_226_">
			<g id="XMLID_227_">
				<rect id="XMLID_228_" x="70" y="118" fill="#47BDEF" width="2" height="2"/>
			</g>
		</g>
	</g>
	<g id="XMLID_229_">
		<g id="XMLID_230_">
			<g id="XMLID_231_">
				<rect id="XMLID_232_" x="72" y="116" fill="#47BDEF" width="2" height="2"/>
			</g>
		</g>
	</g>
	<g id="XMLID_233_">
		<g id="XMLID_234_">
			<g id="XMLID_235_">
				<rect id="XMLID_236_" x="74" y="112" fill="#47BDEF" width="2" height="4"/>
			</g>
		</g>
	</g>
	<g id="XMLID_237_">
		<g id="XMLID_238_">
			<g id="XMLID_239_">
				<rect id="XMLID_240_" x="76" y="112" fill="#47BDEF" width="2" height="2"/>
			</g>
		</g>
	</g>
	<g id="XMLID_241_">
		<g id="XMLID_242_">
			<g id="XMLID_243_">
				<rect id="XMLID_246_" x="78" y="110" fill="#47BDEF" width="2" height="2"/>
			</g>
		</g>
	</g>
	<g id="XMLID_248_">
		<g id="XMLID_251_">
			<g id="XMLID_253_">
				<rect id="XMLID_254_" x="80" y="110" fill="#47BDEF" width="2" height="2"/>
			</g>
		</g>
	</g>
	<g id="XMLID_255_">
		<g id="XMLID_256_">
			<g id="XMLID_257_">
				<rect id="XMLID_258_" x="82" y="112" fill="#47BDEF" width="2" height="2"/>
			</g>
		</g>
	</g>
	<g id="XMLID_259_">
		<g id="XMLID_260_">
			<g id="XMLID_261_">
				<rect id="XMLID_262_" x="80" y="114" fill="#47BDEF" width="2" height="2"/>
			</g>
		</g>
	</g>
	<g id="XMLID_263_">
		<g id="XMLID_264_">
			<g id="XMLID_265_">
				<rect id="XMLID_266_" x="76" y="116" fill="#47BDEF" width="4" height="2"/>
			</g>
		</g>
	</g>
	<g id="XMLID_267_">
		<g id="XMLID_268_">
			<g id="XMLID_269_">
				<rect id="XMLID_270_" x="80" y="118" fill="#47BDEF" width="2" height="2"/>
			</g>
		</g>
	</g>
	<g id="XMLID_271_">
		<g id="XMLID_272_">
			<g id="XMLID_273_">
				<rect id="XMLID_274_" x="82" y="116" fill="#47BDEF" width="2" height="2"/>
			</g>
		</g>
	</g>
	<g id="XMLID_275_">
		<g id="XMLID_276_">
			<g id="XMLID_277_">
				<rect id="XMLID_278_" x="76" y="118" fill="#47BDEF" width="2" height="2"/>
			</g>
		</g>
	</g>
	<g id="XMLID_3474_">
		<g id="XMLID_3475_">
			<g id="XMLID_3476_">
				<rect id="XMLID_3477_" x="68" y="94" fill="#47BDEF" width="2" height="2"/>
			</g>
		</g>
	</g>
	<g id="XMLID_165_">
		<g id="XMLID_166_">
			<g id="XMLID_167_">
				<rect id="XMLID_168_" x="70" y="92" fill="#47BDEF" width="6" height="2"/>
			</g>
		</g>
	</g>
	<g id="XMLID_161_">
		<g id="XMLID_162_">
			<g id="XMLID_163_">
				<rect id="XMLID_164_" x="68" y="98" fill="#47BDEF" width="2" height="4"/>
			</g>
		</g>
	</g>
	<g id="XMLID_286_">
		<g id="XMLID_295_">
			<g id="XMLID_307_">
				<rect id="XMLID_310_" x="82" y="96" fill="#47BDEF" width="2" height="4"/>
			</g>
		</g>
	</g>
	<g id="XMLID_311_">
		<g id="XMLID_312_">
			<g id="XMLID_313_">
				<rect id="XMLID_314_" x="82" y="102" fill="#47BDEF" width="2" height="4"/>
			</g>
		</g>
	</g>
	<g id="XMLID_3470_">
		<g id="XMLID_3471_">
			<g id="XMLID_3472_">
				<rect id="XMLID_3473_" x="84" y="112" fill="#47BDEF" width="4" height="2"/>
			</g>
		</g>
	</g>
	<g id="XMLID_3466_">
		<g id="XMLID_3467_">
			<g id="XMLID_3468_">
				<rect id="XMLID_3469_" x="84" y="98" fill="#47BDEF" width="2" height="2"/>
			</g>
		</g>
	</g>
	<g id="XMLID_169_">
		<g id="XMLID_170_">
			<g id="XMLID_171_">
				<rect id="XMLID_172_" x="80" y="92" fill="#47BDEF" width="2" height="2"/>
			</g>
		</g>
	</g>
	<g id="XMLID_173_">
		<g id="XMLID_174_">
			<g id="XMLID_175_">
				<rect id="XMLID_176_" x="88" y="98" fill="#47BDEF" width="2" height="4"/>
			</g>
		</g>
	</g>
	<g id="XMLID_3462_">
		<g id="XMLID_3463_">
			<g id="XMLID_3464_">
				<rect id="XMLID_3465_" x="86" y="96" fill="#47BDEF" width="2" height="2"/>
			</g>
		</g>
	</g>
	<g id="XMLID_3458_">
		<g id="XMLID_3459_">
			<g id="XMLID_3460_">
				<rect id="XMLID_3461_" x="92" y="98" fill="#47BDEF" width="2" height="4"/>
			</g>
		</g>
	</g>
	<g id="XMLID_3454_">
		<g id="XMLID_3455_">
			<g id="XMLID_3456_">
				<rect id="XMLID_3457_" x="92" y="94" fill="#47BDEF" width="2" height="2"/>
			</g>
		</g>
	</g>
	<g id="XMLID_3450_">
		<g id="XMLID_3451_">
			<g id="XMLID_3452_">
				<rect id="XMLID_3453_" x="90" y="96" fill="#47BDEF" width="4" height="2"/>
			</g>
		</g>
	</g>
	<g id="XMLID_3446_">
		<g id="XMLID_3447_">
			<g id="XMLID_3448_">
				<rect id="XMLID_3449_" x="94" y="92" fill="#47BDEF" width="2" height="2"/>
			</g>
		</g>
	</g>
	<g id="XMLID_193_">
		<g id="XMLID_194_">
			<g id="XMLID_195_">
				<rect id="XMLID_196_" x="94" y="104" fill="#47BDEF" width="2" height="2"/>
			</g>
		</g>
	</g>
	<g id="XMLID_197_">
		<g id="XMLID_198_">
			<g id="XMLID_199_">
				<rect id="XMLID_200_" x="92" y="108" fill="#47BDEF" width="2" height="2"/>
			</g>
		</g>
	</g>
	<g id="XMLID_201_">
		<g id="XMLID_202_">
			<g id="XMLID_203_">
				<rect id="XMLID_204_" x="84" y="118" fill="#47BDEF" width="2" height="2"/>
			</g>
		</g>
	</g>
	<g id="XMLID_205_">
		<g id="XMLID_206_">
			<g id="XMLID_207_">
				<rect id="XMLID_208_" x="84" y="106" fill="#47BDEF" width="2" height="2"/>
			</g>
		</g>
	</g>
	<g id="XMLID_209_">
		<g id="XMLID_210_">
			<g id="XMLID_211_">
				<rect id="XMLID_212_" x="88" y="106" fill="#47BDEF" width="2" height="2"/>
			</g>
		</g>
	</g>
	<g id="XMLID_213_">
		<g id="XMLID_214_">
			<g id="XMLID_215_">
				<rect id="XMLID_216_" x="80" y="106" fill="#47BDEF" width="4" height="2"/>
			</g>
		</g>
	</g>
	<g id="XMLID_221_">
		<g id="XMLID_222_">
			<g id="XMLID_223_">
				<rect id="XMLID_224_" x="68" y="116" fill="#47BDEF" width="4" height="2"/>
			</g>
		</g>
	</g>
	<g id="XMLID_3442_">
		<g id="XMLID_3443_">
			<g id="XMLID_3444_">
				<polygon id="XMLID_3445_" fill="#47BDEF" points="86,92 84,92 84,94 84,94 84,96 86,96 				"/>
			</g>
		</g>
	</g>
	<g id="XMLID_3438_">
		<g id="XMLID_3439_">
			<g id="XMLID_3440_">
				<polygon id="XMLID_3441_" fill="#47BDEF" points="72,112 68,112 68,114 70,114 70,116 72,116 72,114 				"/>
			</g>
		</g>
	</g>
	<g id="XMLID_3432_">
		<g id="XMLID_3433_">
			<g id="XMLID_3434_">
				<path id="XMLID_3435_" fill="#47BDEF" d="M94,112h-4v-2h-2v6h-2v2h4v2h2v-2h2v-2h2v-2h-2V112z M92,116h-2v-2h2V116z"/>
			</g>
		</g>
	</g>
	<g id="XMLID_3428_">
		<g id="XMLID_3429_">
			<g id="XMLID_3430_">
				<rect id="XMLID_3431_" x="74" y="80" fill="#47BDEF" width="4" height="2"/>
			</g>
		</g>
	</g>
	<g id="XMLID_79_">
		<g id="XMLID_80_">
			<g id="XMLID_81_">
				<rect id="XMLID_82_" x="78" y="82" fill="#47BDEF" width="4" height="2"/>
			</g>
		</g>
	</g>
</g>
<path fill="#47BDEF" d="M80,96h-8v8h8V96z M78,102h-4v-4h4V102z"/>
<g id="XMLID_718_">
	<path id="XMLID_719_" fill="#FFFFFF" d="M47,194v-56c0-1.1,0.9-2,2-2h402c1.1,0,2,0.9,2,2v56c0,1.1-0.9,2-2,2H49
		C47.9,196,47,195.1,47,194z"/>
</g>
<g id="XMLID_716_" opacity="0.25">
	<g id="XMLID_717_">
		<path fill="#797D80" d="M451,137c0.6,0,1,0.4,1,1v56c0,0.6-0.4,1-1,1H49c-0.6,0-1-0.4-1-1v-56c0-0.6,0.4-1,1-1H451 M451,136H49
			c-1.1,0-2,0.9-2,2v56c0,1.1,0.9,2,2,2h402c1.1,0,2-0.9,2-2v-56C453,136.9,452.1,136,451,136L451,136z"/>
	</g>
</g>
<g id="XMLID_714_" opacity="0.25">
	<g id="XMLID_715_">
		<path fill="#797D80" d="M170,180v7h-38v-7H170 M170,179h-38c-0.6,0-1,0.4-1,1v7c0,0.6,0.4,1,1,1h38c0.6,0,1-0.4,1-1v-7
			C171,179.4,170.6,179,170,179L170,179z"/>
	</g>
</g>
<g id="XMLID_712_">
	<rect id="XMLID_713_" x="424" y="149" fill="#47BDEF" width="18" height="5"/>
</g>
<g id="XMLID_710_">
	<rect id="XMLID_711_" x="424" y="178" fill="#797D80" width="18" height="5"/>
</g>
<g id="XMLID_708_">
	<rect id="XMLID_709_" x="131" y="146" fill="#797D80" width="34" height="4"/>
</g>
<g id="XMLID_706_">
	<rect id="XMLID_707_" x="131" y="156" opacity="0.75" fill="#797D80" width="12" height="3"/>
</g>
<g id="XMLID_704_">
	<rect id="XMLID_705_" x="155" y="156" fill="#797D80" width="38" height="3"/>
</g>
<g id="XMLID_702_">
	<rect id="XMLID_703_" x="155" y="163" fill="#797D80" width="28" height="3"/>
</g>
<g id="XMLID_700_">
	<rect id="XMLID_701_" x="155" y="170" fill="#797D80" width="32" height="3"/>
</g>
<g id="XMLID_698_" opacity="0.25">
	<g id="XMLID_699_">
		<rect x="162" y="180" fill="#797D80" width="1" height="7"/>
	</g>
</g>
<g id="XMLID_696_">
	<rect id="XMLID_697_" x="131" y="163" opacity="0.75" fill="#797D80" width="12" height="3"/>
</g>
<g id="XMLID_694_">
	<rect id="XMLID_695_" x="131" y="170" opacity="0.75" fill="#797D80" width="12" height="3"/>
</g>
<g id="XMLID_692_">
	<rect id="XMLID_693_" x="141" y="182" opacity="0.75" fill="#797D80" width="13" height="3"/>
</g>
<g id="XMLID_690_">
	<polygon id="XMLID_691_" fill="#797D80" points="167,184 168,183 165,183 166,184 	"/>
</g>
<g id="XMLID_688_">
	<g id="XMLID_689_">
		<path fill="#797D80" d="M121,147v2h-2v-2H121 M123,145h-6v6h6V145L123,145z"/>
	</g>
</g>
<g id="XMLID_686_" opacity="0.25">
	<rect id="XMLID_687_" x="413" y="137" fill="#797D80" width="1" height="58"/>
</g>
<g id="XMLID_684_" opacity="0.25">
	<rect id="XMLID_685_" x="106" y="137" fill="#797D80" width="1" height="58"/>
</g>
<g id="XMLID_315_">
	<g id="XMLID_678_">
		<g id="XMLID_679_">
			<g id="XMLID_680_">
				<path id="XMLID_681_" fill="#47BDEF" d="M63,146h-4c-1.7,0-3,1.3-3,3v4c0,1.7,1.3,3,3,3h7v-7C66,147.3,64.7,146,63,146z M64,154
					h-5c-0.6,0-1-0.4-1-1v-4c0-0.6,0.4-1,1-1h4c0.6,0,1,0.4,1,1V154z"/>
			</g>
		</g>
	</g>
	<g id="XMLID_674_">
		<g id="XMLID_675_">
			<g id="XMLID_676_">
				<path id="XMLID_677_" fill="#797D80" d="M62,149h-2c-0.6,0-1,0.4-1,1v2c0,0.6,0.4,1,1,1h3v-3C63,149.4,62.6,149,62,149z"/>
			</g>
		</g>
	</g>
	<g id="XMLID_668_">
		<g id="XMLID_669_">
			<g id="XMLID_670_">
				<path id="XMLID_671_" fill="#47BDEF" d="M66,176h-7c-1.7,0-3,1.3-3,3v4c0,1.7,1.3,3,3,3h4c1.7,0,3-1.3,3-3V176z M63,184h-4
					c-0.6,0-1-0.4-1-1v-4c0-0.6,0.4-1,1-1h5v5C64,183.6,63.6,184,63,184z"/>
			</g>
		</g>
	</g>
	<g id="XMLID_664_">
		<g id="XMLID_665_">
			<g id="XMLID_666_">
				<path id="XMLID_667_" fill="#797D80" d="M63,179h-3c-0.6,0-1,0.4-1,1v2c0,0.6,0.4,1,1,1h2c0.6,0,1-0.4,1-1V179z"/>
			</g>
		</g>
	</g>
	<g id="XMLID_658_">
		<g id="XMLID_659_">
			<g id="XMLID_660_">
				<path id="XMLID_661_" fill="#47BDEF" d="M86,149v7h7c1.7,0,3-1.3,3-3v-4c0-1.7-1.3-3-3-3h-4C87.3,146,86,147.3,86,149z M93,154
					h-5v-5c0-0.6,0.4-1,1-1h4c0.6,0,1,0.4,1,1v4C94,153.6,93.6,154,93,154z"/>
			</g>
		</g>
	</g>
	<g id="XMLID_654_">
		<g id="XMLID_655_">
			<g id="XMLID_656_">
				<path id="XMLID_657_" fill="#797D80" d="M92,149h-2c-0.6,0-1,0.4-1,1v3h3c0.6,0,1-0.4,1-1v-2C93,149.4,92.6,149,92,149z"/>
			</g>
		</g>
	</g>
	<g id="XMLID_650_">
		<g id="XMLID_651_">
			<g id="XMLID_652_">
				<polygon id="XMLID_653_" fill="#47BDEF" points="74,154 76,154 76,152 78,152 78,150 74,150 74,152 72,152 72,154 74,154 				
					"/>
			</g>
		</g>
	</g>
	<g id="XMLID_646_">
		<g id="XMLID_647_">
			<g id="XMLID_648_">
				<rect id="XMLID_649_" x="74" y="148" fill="#47BDEF" width="2" height="2"/>
			</g>
		</g>
	</g>
	<g id="XMLID_642_">
		<g id="XMLID_643_">
			<g id="XMLID_644_">
				<rect id="XMLID_645_" x="56" y="160" fill="#47BDEF" width="2" height="2"/>
			</g>
		</g>
	</g>
	<g id="XMLID_638_">
		<g id="XMLID_639_">
			<g id="XMLID_640_">
				<rect id="XMLID_641_" x="56" y="164" fill="#47BDEF" width="4" height="2"/>
			</g>
		</g>
	</g>
	<g id="XMLID_634_">
		<g id="XMLID_635_">
			<g id="XMLID_636_">
				<rect id="XMLID_637_" x="64" y="158" fill="#47BDEF" width="4" height="2"/>
			</g>
		</g>
	</g>
	<g id="XMLID_630_">
		<g id="XMLID_631_">
			<g id="XMLID_632_">
				<rect id="XMLID_633_" x="68" y="154" fill="#47BDEF" width="2" height="4"/>
			</g>
		</g>
	</g>
	<g id="XMLID_626_">
		<g id="XMLID_627_">
			<g id="XMLID_628_">
				<rect id="XMLID_629_" x="68" y="146" fill="#47BDEF" width="2" height="2"/>
			</g>
		</g>
	</g>
	<g id="XMLID_720_">
		<g id="XMLID_724_">
			<g id="XMLID_725_">
				<rect id="XMLID_726_" x="68" y="150" fill="#47BDEF" width="2" height="2"/>
			</g>
		</g>
	</g>
	<g id="XMLID_622_">
		<g id="XMLID_623_">
			<g id="XMLID_624_">
				<rect id="XMLID_625_" x="82" y="146" fill="#47BDEF" width="2" height="2"/>
			</g>
		</g>
	</g>
	<g id="XMLID_606_">
		<g id="XMLID_607_">
			<g id="XMLID_608_">
				<rect id="XMLID_609_" x="80" y="150" fill="#47BDEF" width="2" height="2"/>
			</g>
		</g>
	</g>
	<g id="XMLID_618_">
		<g id="XMLID_619_">
			<g id="XMLID_620_">
				<rect id="XMLID_621_" x="70" y="148" fill="#47BDEF" width="2" height="4"/>
			</g>
		</g>
	</g>
	<g id="XMLID_614_">
		<g id="XMLID_615_">
			<g id="XMLID_616_">
				<rect id="XMLID_617_" x="60" y="160" fill="#47BDEF" width="4" height="2"/>
			</g>
		</g>
	</g>
	<g id="XMLID_610_">
		<g id="XMLID_611_">
			<g id="XMLID_612_">
				<rect id="XMLID_613_" x="58" y="162" fill="#47BDEF" width="2" height="2"/>
			</g>
		</g>
	</g>
	<g id="XMLID_602_">
		<g id="XMLID_603_">
			<g id="XMLID_604_">
				<rect id="XMLID_605_" x="60" y="164" fill="#47BDEF" width="2" height="4"/>
			</g>
		</g>
	</g>
	<g id="XMLID_598_">
		<g id="XMLID_599_">
			<g id="XMLID_600_">
				<rect id="XMLID_601_" x="64" y="164" fill="#47BDEF" width="2" height="4"/>
			</g>
		</g>
	</g>
	<g id="XMLID_594_">
		<g id="XMLID_595_">
			<g id="XMLID_596_">
				<rect id="XMLID_597_" x="56" y="168" fill="#47BDEF" width="4" height="2"/>
			</g>
		</g>
	</g>
	<g id="XMLID_590_">
		<g id="XMLID_591_">
			<g id="XMLID_592_">
				<rect id="XMLID_593_" x="66" y="162" fill="#47BDEF" width="2" height="2"/>
			</g>
		</g>
	</g>
	<g id="XMLID_739_">
		<g id="XMLID_740_">
			<g id="XMLID_741_">
				<rect id="XMLID_742_" x="62" y="164" fill="#47BDEF" width="2" height="2"/>
			</g>
		</g>
	</g>
	<g id="XMLID_586_">
		<g id="XMLID_587_">
			<g id="XMLID_588_">
				<rect id="XMLID_589_" x="58" y="158" fill="#47BDEF" width="2" height="2"/>
			</g>
		</g>
	</g>
	<g id="XMLID_582_">
		<g id="XMLID_583_">
			<g id="XMLID_584_">
				<rect id="XMLID_585_" x="88" y="160" fill="#47BDEF" width="2" height="2"/>
			</g>
		</g>
	</g>
	<g id="XMLID_578_">
		<g id="XMLID_579_">
			<g id="XMLID_580_">
				<rect id="XMLID_581_" x="86" y="158" fill="#47BDEF" width="2" height="2"/>
			</g>
		</g>
	</g>
	<g id="XMLID_574_">
		<g id="XMLID_575_">
			<g id="XMLID_576_">
				<rect id="XMLID_577_" x="94" y="164" fill="#47BDEF" width="2" height="2"/>
			</g>
		</g>
	</g>
	<g id="XMLID_570_">
		<g id="XMLID_571_">
			<g id="XMLID_572_">
				<rect id="XMLID_573_" x="82" y="156" fill="#47BDEF" width="2" height="2"/>
			</g>
		</g>
	</g>
	<g id="XMLID_566_">
		<g id="XMLID_567_">
			<g id="XMLID_568_">
				<rect id="XMLID_569_" x="72" y="156" fill="#47BDEF" width="2" height="2"/>
			</g>
		</g>
	</g>
	<g id="XMLID_562_">
		<g id="XMLID_563_">
			<g id="XMLID_564_">
				<rect id="XMLID_565_" x="76" y="156" fill="#47BDEF" width="2" height="2"/>
			</g>
		</g>
	</g>
	<g id="XMLID_558_">
		<g id="XMLID_559_">
			<g id="XMLID_560_">
				<rect id="XMLID_561_" x="72" y="146" fill="#47BDEF" width="2" height="2"/>
			</g>
		</g>
	</g>
	<g id="XMLID_554_">
		<g id="XMLID_555_">
			<g id="XMLID_556_">
				<rect id="XMLID_557_" x="74" y="154" fill="#47BDEF" width="2" height="2"/>
			</g>
		</g>
	</g>
	<g id="XMLID_550_">
		<g id="XMLID_551_">
			<g id="XMLID_552_">
				<rect id="XMLID_553_" x="78" y="158" fill="#47BDEF" width="2" height="2"/>
			</g>
		</g>
	</g>
	<g id="XMLID_546_">
		<g id="XMLID_547_">
			<g id="XMLID_548_">
				<rect id="XMLID_549_" x="78" y="154" fill="#47BDEF" width="4" height="2"/>
			</g>
		</g>
	</g>
	<g id="XMLID_542_">
		<g id="XMLID_543_">
			<g id="XMLID_544_">
				<rect id="XMLID_545_" x="82" y="152" fill="#47BDEF" width="2" height="2"/>
			</g>
		</g>
	</g>
	<g id="XMLID_538_">
		<g id="XMLID_539_">
			<g id="XMLID_540_">
				<rect id="XMLID_541_" x="56" y="158" fill="#47BDEF" width="2" height="2"/>
			</g>
		</g>
	</g>
	<g id="XMLID_534_">
		<g id="XMLID_535_">
			<g id="XMLID_536_">
				<rect id="XMLID_537_" x="94" y="184" fill="#47BDEF" width="2" height="2"/>
			</g>
		</g>
	</g>
	<g id="XMLID_727_">
		<g id="XMLID_728_">
			<g id="XMLID_729_">
				<rect id="XMLID_730_" x="92" y="176" fill="#47BDEF" width="2" height="2"/>
			</g>
		</g>
	</g>
	<g id="XMLID_530_">
		<g id="XMLID_531_">
			<g id="XMLID_532_">
				<rect id="XMLID_533_" x="74" y="174" fill="#47BDEF" width="2" height="2"/>
			</g>
		</g>
	</g>
	<g id="XMLID_526_">
		<g id="XMLID_527_">
			<g id="XMLID_528_">
				<rect id="XMLID_529_" x="72" y="172" fill="#47BDEF" width="6" height="2"/>
			</g>
		</g>
	</g>
	<g id="XMLID_522_">
		<g id="XMLID_523_">
			<g id="XMLID_524_">
				<rect id="XMLID_525_" x="82" y="174" fill="#47BDEF" width="4" height="2"/>
			</g>
		</g>
	</g>
	<g id="XMLID_518_">
		<g id="XMLID_519_">
			<g id="XMLID_520_">
				<rect id="XMLID_521_" x="84" y="168" fill="#47BDEF" width="2" height="2"/>
			</g>
		</g>
	</g>
	<g id="XMLID_514_">
		<g id="XMLID_515_">
			<g id="XMLID_516_">
				<rect id="XMLID_517_" x="88" y="170" fill="#47BDEF" width="4" height="2"/>
			</g>
		</g>
	</g>
	<g id="XMLID_510_">
		<g id="XMLID_511_">
			<g id="XMLID_512_">
				<rect id="XMLID_513_" x="92" y="172" fill="#47BDEF" width="4" height="2"/>
			</g>
		</g>
	</g>
	<g id="XMLID_506_">
		<g id="XMLID_507_">
			<g id="XMLID_508_">
				<rect id="XMLID_509_" x="68" y="176" fill="#47BDEF" width="2" height="4"/>
			</g>
		</g>
	</g>
	<g id="XMLID_502_">
		<g id="XMLID_503_">
			<g id="XMLID_504_">
				<rect id="XMLID_505_" x="64" y="172" fill="#47BDEF" width="2" height="2"/>
			</g>
		</g>
	</g>
	<g id="XMLID_498_">
		<g id="XMLID_499_">
			<g id="XMLID_500_">
				<rect id="XMLID_501_" x="56" y="172" fill="#47BDEF" width="2" height="2"/>
			</g>
		</g>
	</g>
	<g id="XMLID_494_">
		<g id="XMLID_495_">
			<g id="XMLID_496_">
				<rect id="XMLID_497_" x="60" y="172" fill="#47BDEF" width="2" height="2"/>
			</g>
		</g>
	</g>
	<g id="XMLID_490_">
		<g id="XMLID_491_">
			<g id="XMLID_492_">
				<rect id="XMLID_493_" x="58" y="170" fill="#47BDEF" width="2" height="2"/>
			</g>
		</g>
	</g>
	<g id="XMLID_486_">
		<g id="XMLID_487_">
			<g id="XMLID_488_">
				<rect id="XMLID_489_" x="62" y="168" fill="#47BDEF" width="2" height="4"/>
			</g>
		</g>
	</g>
	<g id="XMLID_482_">
		<g id="XMLID_483_">
			<g id="XMLID_484_">
				<rect id="XMLID_485_" x="66" y="168" fill="#47BDEF" width="2" height="2"/>
			</g>
		</g>
	</g>
	<g id="XMLID_478_">
		<g id="XMLID_479_">
			<g id="XMLID_480_">
				<rect id="XMLID_481_" x="68" y="170" fill="#47BDEF" width="2" height="4"/>
			</g>
		</g>
	</g>
	<g id="XMLID_474_">
		<g id="XMLID_475_">
			<g id="XMLID_476_">
				<rect id="XMLID_477_" x="72" y="176" fill="#47BDEF" width="2" height="2"/>
			</g>
		</g>
	</g>
	<g id="XMLID_470_">
		<g id="XMLID_471_">
			<g id="XMLID_472_">
				<rect id="XMLID_473_" x="70" y="184" fill="#47BDEF" width="2" height="2"/>
			</g>
		</g>
	</g>
	<g id="XMLID_466_">
		<g id="XMLID_467_">
			<g id="XMLID_468_">
				<rect id="XMLID_469_" x="72" y="182" fill="#47BDEF" width="2" height="2"/>
			</g>
		</g>
	</g>
	<g id="XMLID_462_">
		<g id="XMLID_463_">
			<g id="XMLID_464_">
				<rect id="XMLID_465_" x="74" y="178" fill="#47BDEF" width="2" height="4"/>
			</g>
		</g>
	</g>
	<g id="XMLID_458_">
		<g id="XMLID_459_">
			<g id="XMLID_460_">
				<rect id="XMLID_461_" x="76" y="178" fill="#47BDEF" width="2" height="2"/>
			</g>
		</g>
	</g>
	<g id="XMLID_454_">
		<g id="XMLID_455_">
			<g id="XMLID_456_">
				<rect id="XMLID_457_" x="78" y="174" fill="#47BDEF" width="2" height="4"/>
			</g>
		</g>
	</g>
	<g id="XMLID_450_">
		<g id="XMLID_451_">
			<g id="XMLID_452_">
				<rect id="XMLID_453_" x="80" y="178" fill="#47BDEF" width="2" height="2"/>
			</g>
		</g>
	</g>
	<g id="XMLID_446_">
		<g id="XMLID_447_">
			<g id="XMLID_448_">
				<rect id="XMLID_449_" x="84" y="176" fill="#47BDEF" width="2" height="2"/>
			</g>
		</g>
	</g>
	<g id="XMLID_442_">
		<g id="XMLID_443_">
			<g id="XMLID_444_">
				<rect id="XMLID_445_" x="78" y="180" fill="#47BDEF" width="4" height="2"/>
			</g>
		</g>
	</g>
	<g id="XMLID_438_">
		<g id="XMLID_439_">
			<g id="XMLID_440_">
				<rect id="XMLID_441_" x="76" y="182" fill="#47BDEF" width="4" height="2"/>
			</g>
		</g>
	</g>
	<g id="XMLID_434_">
		<g id="XMLID_435_">
			<g id="XMLID_436_">
				<rect id="XMLID_437_" x="80" y="184" fill="#47BDEF" width="2" height="2"/>
			</g>
		</g>
	</g>
	<g id="XMLID_430_">
		<g id="XMLID_431_">
			<g id="XMLID_432_">
				<rect id="XMLID_433_" x="82" y="182" fill="#47BDEF" width="2" height="2"/>
			</g>
		</g>
	</g>
	<g id="XMLID_426_">
		<g id="XMLID_427_">
			<g id="XMLID_428_">
				<rect id="XMLID_429_" x="76" y="184" fill="#47BDEF" width="2" height="2"/>
			</g>
		</g>
	</g>
	<g id="XMLID_422_">
		<g id="XMLID_423_">
			<g id="XMLID_424_">
				<rect id="XMLID_425_" x="68" y="160" fill="#47BDEF" width="2" height="2"/>
			</g>
		</g>
	</g>
	<g id="XMLID_418_">
		<g id="XMLID_419_">
			<g id="XMLID_420_">
				<rect id="XMLID_421_" x="70" y="158" fill="#47BDEF" width="4" height="2"/>
			</g>
		</g>
	</g>
	<g id="XMLID_414_">
		<g id="XMLID_415_">
			<g id="XMLID_416_">
				<rect id="XMLID_417_" x="68" y="164" fill="#47BDEF" width="2" height="4"/>
			</g>
		</g>
	</g>
	<g id="XMLID_409_">
		<g id="XMLID_410_">
			<g id="XMLID_411_">
				<rect id="XMLID_412_" x="82" y="162" fill="#47BDEF" width="2" height="4"/>
			</g>
		</g>
	</g>
	<g id="XMLID_405_">
		<g id="XMLID_406_">
			<g id="XMLID_407_">
				<rect id="XMLID_408_" x="82" y="170" fill="#47BDEF" width="2" height="2"/>
			</g>
		</g>
	</g>
	<g id="XMLID_401_">
		<g id="XMLID_402_">
			<g id="XMLID_403_">
				<rect id="XMLID_404_" x="84" y="178" fill="#47BDEF" width="4" height="2"/>
			</g>
		</g>
	</g>
	<g id="XMLID_397_">
		<g id="XMLID_398_">
			<g id="XMLID_399_">
				<rect id="XMLID_400_" x="84" y="164" fill="#47BDEF" width="2" height="2"/>
			</g>
		</g>
	</g>
	<g id="XMLID_393_">
		<g id="XMLID_394_">
			<g id="XMLID_395_">
				<rect id="XMLID_396_" x="80" y="158" fill="#47BDEF" width="2" height="2"/>
			</g>
		</g>
	</g>
	<g id="XMLID_389_">
		<g id="XMLID_390_">
			<g id="XMLID_391_">
				<rect id="XMLID_392_" x="88" y="166" fill="#47BDEF" width="2" height="2"/>
			</g>
		</g>
	</g>
	<g id="XMLID_382_">
		<g id="XMLID_383_">
			<g id="XMLID_384_">
				<rect id="XMLID_388_" x="86" y="162" fill="#47BDEF" width="2" height="2"/>
			</g>
		</g>
	</g>
	<g id="XMLID_731_">
		<g id="XMLID_732_">
			<g id="XMLID_733_">
				<rect id="XMLID_734_" x="86" y="166" fill="#47BDEF" width="2" height="2"/>
			</g>
		</g>
	</g>
	<g id="XMLID_735_">
		<g id="XMLID_736_">
			<g id="XMLID_737_">
				<rect id="XMLID_738_" x="90" y="158" fill="#47BDEF" width="2" height="2"/>
			</g>
		</g>
	</g>
	<g id="XMLID_378_">
		<g id="XMLID_379_">
			<g id="XMLID_380_">
				<rect id="XMLID_381_" x="92" y="164" fill="#47BDEF" width="2" height="4"/>
			</g>
		</g>
	</g>
	<g id="XMLID_374_">
		<g id="XMLID_375_">
			<g id="XMLID_376_">
				<rect id="XMLID_377_" x="92" y="160" fill="#47BDEF" width="2" height="2"/>
			</g>
		</g>
	</g>
	<g id="XMLID_370_">
		<g id="XMLID_371_">
			<g id="XMLID_372_">
				<rect id="XMLID_373_" x="90" y="162" fill="#47BDEF" width="4" height="2"/>
			</g>
		</g>
	</g>
	<g id="XMLID_366_">
		<g id="XMLID_367_">
			<g id="XMLID_368_">
				<rect id="XMLID_369_" x="94" y="158" fill="#47BDEF" width="2" height="2"/>
			</g>
		</g>
	</g>
	<g id="XMLID_362_">
		<g id="XMLID_363_">
			<g id="XMLID_364_">
				<rect id="XMLID_365_" x="94" y="174" fill="#47BDEF" width="2" height="2"/>
			</g>
		</g>
	</g>
	<g id="XMLID_358_">
		<g id="XMLID_359_">
			<g id="XMLID_360_">
				<rect id="XMLID_361_" x="94" y="170" fill="#47BDEF" width="2" height="2"/>
			</g>
		</g>
	</g>
	<g id="XMLID_354_">
		<g id="XMLID_355_">
			<g id="XMLID_356_">
				<rect id="XMLID_357_" x="84" y="184" fill="#47BDEF" width="4" height="2"/>
			</g>
		</g>
	</g>
	<g id="XMLID_350_">
		<g id="XMLID_351_">
			<g id="XMLID_352_">
				<rect id="XMLID_353_" x="86" y="172" fill="#47BDEF" width="2" height="2"/>
			</g>
		</g>
	</g>
	<g id="XMLID_346_">
		<g id="XMLID_347_">
			<g id="XMLID_348_">
				<rect id="XMLID_349_" x="88" y="172" fill="#47BDEF" width="2" height="2"/>
			</g>
		</g>
	</g>
	<g id="XMLID_342_">
		<g id="XMLID_343_">
			<g id="XMLID_344_">
				<rect id="XMLID_345_" x="80" y="172" fill="#47BDEF" width="4" height="2"/>
			</g>
		</g>
	</g>
	<g id="XMLID_338_">
		<g id="XMLID_339_">
			<g id="XMLID_340_">
				<rect id="XMLID_341_" x="68" y="182" fill="#47BDEF" width="4" height="2"/>
			</g>
		</g>
	</g>
	<g id="XMLID_334_">
		<g id="XMLID_335_">
			<g id="XMLID_336_">
				<polygon id="XMLID_337_" fill="#47BDEF" points="86,160 84,160 84,160 84,160 84,162 86,162 				"/>
			</g>
		</g>
	</g>
	<g id="XMLID_330_">
		<g id="XMLID_331_">
			<g id="XMLID_332_">
				<polygon id="XMLID_333_" fill="#47BDEF" points="72,178 70,178 70,180 70,180 70,182 72,182 72,180 				"/>
			</g>
		</g>
	</g>
	<g id="XMLID_324_">
		<g id="XMLID_325_">
			<g id="XMLID_326_">
				<path id="XMLID_327_" fill="#47BDEF" d="M94,178h-4v-2h-2v6h-2v2h4v2h2v-2h2v-2h2v-2h-2V178z M92,182h-2v-2h2V182z"/>
			</g>
		</g>
	</g>
	<g id="XMLID_320_">
		<g id="XMLID_321_">
			<g id="XMLID_322_">
				<rect id="XMLID_323_" x="76" y="146" fill="#47BDEF" width="4" height="2"/>
			</g>
		</g>
	</g>
	<g id="XMLID_316_">
		<g id="XMLID_317_">
			<g id="XMLID_318_">
				<rect id="XMLID_319_" x="78" y="148" fill="#47BDEF" width="4" height="2"/>
			</g>
		</g>
	</g>
</g>
<path fill="#47BDEF" d="M78,162h-4c-1.1,0-2,0.9-2,2v4c0,1.1,0.9,2,2,2h4c1.1,0,2-0.9,2-2v-4C80,162.9,79.1,162,78,162z M78,168h-4
	v-4h4V168z"/>
<g id="XMLID_308_">
	<rect id="XMLID_881_" x="38" y="13" fill="#797D80" width="424" height="13"/>
</g>
<g id="XMLID_285_">
	<polygon id="XMLID_869_" fill="#FFFFFF" points="448,19 447,18 451,18 449,20 	"/>
</g>
<g id="XMLID_284_">
	<rect id="XMLID_868_" x="412" y="15" fill="#FFFFFF" width="1" height="8"/>
</g>
<g id="XMLID_4_">
	<rect id="XMLID_9_" x="60" y="14" fill="#FFFFFF" width="1" height="9"/>
</g>
<g id="XMLID_249_">
	<g id="XMLID_252_">
		<rect id="XMLID_864_" x="418" y="17" fill="#FFFFFF" width="24" height="4"/>
	</g>
	<g id="XMLID_250_" opacity="0.75">
		<g id="XMLID_387_">
			<path fill="#FFFFFF" d="M404,17c1.1,0,2,0.9,2,2s-0.9,2-2,2s-2-0.9-2-2S402.9,17,404,17 M404,16c-1.7,0-3,1.3-3,3
				c0,1.7,1.3,3,3,3s3-1.3,3-3C407,17.3,405.7,16,404,16L404,16z"/>
		</g>
	</g>
</g>
<g id="XMLID_247_" opacity="0.5">
	<path id="XMLID_862_" fill="#FFFFFF" d="M123,22h24c0.6,0,1-0.4,1-1v-4c0-0.6-0.4-1-1-1h-24c-0.6,0-1,0.4-1,1v4
		C122,21.6,122.4,22,123,22z"/>
</g>
<g id="XMLID_245_">
	<rect id="XMLID_861_" x="94" y="17" fill="#FFFFFF" width="20" height="4"/>
</g>
<g id="XMLID_1_">
	<g id="XMLID_2_">
		<path fill="#FFFFFF" d="M53,16c0.6,0,1,0.4,1,1v5h-5c-0.6,0-1-0.4-1-1v-4c0-0.6,0.4-1,1-1H53 M53,15h-4c-1.1,0-2,0.9-2,2v4
			c0,1.1,0.9,2,2,2h6v-6C55,15.9,54.1,15,53,15L53,15z"/>
	</g>
</g>
<g id="XMLID_3_">
	<g id="XMLID_5_">
		<path fill="#FFFFFF" d="M50,21h3v-3c0-0.6-0.4-1-1-1h-2c-0.6,0-1,0.4-1,1v2C49,20.6,49.4,21,50,21z"/>
	</g>
</g>
<g id="XMLID_244_" opacity="0.5">
	<rect id="XMLID_860_" x="66" y="17" fill="#FFFFFF" width="20" height="4"/>
</g>
</svg>
